# 3ds Max Wavefront OBJ Exporter v0.97b - (c)2007 guruware
# File Created: 02.01.2019 19:30:13

mtllib ConstruccionDecorativa.mtl

#
# object Decorativ
#

#
# object Box014
#

v  -177.5937 410.3370 4.0395
v  -177.5937 410.3370 73.4990
v  -119.2160 410.3370 73.4990
v  -119.2160 410.3370 4.0395
v  -177.5937 214.1730 2.6619
v  -119.2160 214.1730 2.6619
v  -119.2160 214.1730 73.4990
v  -177.5937 214.1730 73.4990
v  -177.5937 408.7003 2.6619
v  -119.2160 408.7003 2.6619
v  -119.2160 280.2455 2.6619
v  -177.5937 280.2455 2.6619
v  -177.5937 276.9720 -66.5828
v  -120.3421 276.9720 -66.5828
v  -120.3421 214.1730 -66.5828
v  -177.5937 214.1730 -66.5828
v  -119.2160 408.7003 74.8765
v  -119.2160 278.6088 74.8765
v  -119.2160 278.6088 4.0395
v  -119.2160 276.9721 2.6619
v  -119.2160 215.8097 74.8766
v  -177.5937 408.7003 74.8765
v  -177.5937 278.6088 74.8765
v  -177.5937 215.8097 74.8766
v  -178.7198 408.7003 73.4990
v  -178.7198 408.7003 4.0395
v  -178.7198 278.6088 4.0395
v  -178.7198 278.6088 73.4990
v  -178.7198 276.9721 2.6619
v  -178.7198 215.8097 2.6619
v  -178.7198 215.8097 73.4990
v  -178.7198 214.1730 1.2843
v  -178.7198 276.9720 -65.2052
v  -178.7198 214.1730 -65.2052
v  -177.5937 278.6088 1.2843
v  -120.3421 278.6088 1.2843
v  -120.3421 278.6088 -65.2052
v  -177.5937 278.6088 -65.2052
v  -119.2160 214.1730 -65.2052
v  -119.2160 276.9720 -65.2052
v  -177.5937 63.1624 2.6619
v  -119.2160 63.1624 2.6619
v  -178.7198 61.5257 -65.2052
v  -178.7198 61.5257 1.2844
v  -120.3421 61.5257 -66.5828
v  -177.5937 61.5257 -66.5828
v  -119.2160 61.5257 1.2844
v  -119.2160 61.5257 -65.2052
v  -119.2160 59.8890 94.1652
v  -177.5937 59.8890 94.1652
v  -177.5937 21.3254 94.1652
v  -119.2160 21.3254 94.1652
v  -178.7198 59.8890 2.6619
v  -178.7198 21.3253 -65.2052
v  -178.7198 21.3254 2.6619
v  -120.3421 21.3253 -66.5828
v  -177.5937 21.3253 -66.5828
v  -119.2160 59.8890 2.6619
v  -119.2160 19.6887 2.6619
v  -119.2160 19.6886 -65.2052
v  -119.2160 61.5257 4.0395
v  -177.5937 61.5257 4.0395
v  -177.5937 61.5257 92.7876
v  -119.2160 61.5257 92.7876
v  -178.7198 21.3254 92.7876
v  -178.7198 59.8890 92.7876
v  -119.2160 19.6887 92.7876
# 67 vertices

vn -0.3416 0.8756 -0.3416
vn -0.3416 0.8756 0.3416
vn 0.6303 0.7173 0.2971
vn 0.6303 0.7173 -0.2971
vn -0.5196 -0.6042 0.6042
vn 0.9045 -0.3015 0.3015
vn 0.6303 -0.7173 0.2971
vn -0.3416 -0.8756 0.3416
vn -0.3416 0.3416 -0.8756
vn 0.6303 0.2971 -0.7173
vn 0.7833 0.0074 -0.6216
vn -0.4796 0.2971 -0.8256
vn 0.3416 0.3416 -0.8756
vn 0.3827 -0.0000 -0.9239
vn -0.3827 -0.0000 -0.9239
vn 0.6303 0.2971 0.7173
vn 0.7071 0.0000 0.7071
vn 1.0000 0.0000 -0.0000
vn 0.9704 0.2171 -0.1057
vn 0.6303 -0.2971 0.7173
vn -0.3416 0.3415 0.8756
vn -0.3826 0.0000 0.9239
vn -0.3416 -0.3416 0.8756
vn -0.8756 0.3416 0.3416
vn -0.8756 0.3416 -0.3416
vn -0.9704 0.1057 -0.2171
vn -0.9239 0.0000 0.3826
vn -0.9704 0.2171 -0.1057
vn -0.9518 -0.2893 0.1020
vn -0.8756 -0.3416 0.3416
vn -0.9518 -0.1020 0.2893
vn -0.9239 -0.0000 -0.3827
vn -0.4796 0.8256 -0.2971
vn 0.4180 0.8066 -0.4180
vn 0.3416 0.8756 -0.3416
vn 0.9239 -0.0000 -0.3827
vn 0.8756 0.3416 -0.3416
vn -0.4797 0.2971 0.8256
vn 0.8042 0.2275 0.5491
vn -0.9704 0.1057 0.2171
vn -0.3416 0.3416 0.8756
vn 0.8321 0.0000 0.5547
vn -0.9704 0.2171 0.1057
vn -1.0000 0.0000 -0.0000
vn 0.4444 -0.0000 -0.8959
vn 0.9576 -0.0000 -0.2880
vn 0.8042 0.5491 0.2275
vn -0.4797 0.8256 0.2971
# 48 vertex normals

vt 0.5507 0.1665 0.0000
vt 0.5507 0.0397 0.0000
vt 0.6811 0.0397 0.0000
vt 0.6811 0.1665 0.0000
vt 0.5081 0.1840 0.0000
vt 0.3787 0.1680 0.0000
vt 0.3946 0.0397 0.0000
vt 0.5240 0.0557 0.0000
vt 0.6922 0.4118 0.0000
vt 0.6211 0.5211 0.0000
vt 0.4557 0.4135 0.0000
vt 0.5267 0.3042 0.0000
vt 0.4190 0.2341 0.0000
vt 0.3493 0.3413 0.0000
vt 0.2684 0.2887 0.0000
vt 0.3381 0.1815 0.0000
vt 0.5196 0.6810 0.0000
vt 0.5221 0.6784 0.0000
vt 0.6489 0.6784 0.0000
vt 0.6515 0.6810 0.0000
vt 0.6515 0.8809 0.0000
vt 0.5220 0.8809 0.0000
vt 0.5196 0.8784 0.0000
vt 0.5196 0.8835 0.0000
vt 0.6515 0.9775 0.0000
vt 0.6489 0.9800 0.0000
vt 0.5196 0.9800 0.0000
vt 0.3199 0.3493 0.0000
vt 0.3199 0.4796 0.0000
vt 0.1200 0.4796 0.0000
vt 0.1201 0.3492 0.0000
vt 0.0236 0.4796 0.0000
vt 0.0236 0.3492 0.0000
vt 0.7966 0.6277 0.0000
vt 0.9144 0.6747 0.0000
vt 0.8402 0.8604 0.0000
vt 0.7225 0.8133 0.0000
vt 0.8416 0.8636 0.0000
vt 0.8067 0.9509 0.0000
vt 0.6867 0.9029 0.0000
vt 0.6988 0.3027 0.0000
vt 0.6957 0.3009 0.0000
vt 0.6638 0.2126 0.0000
vt 0.7803 0.1707 0.0000
vt 0.8130 0.2614 0.0000
vt 0.5238 0.3022 0.0000
vt 0.4541 0.4094 0.0000
vt 0.3523 0.3433 0.0000
vt 0.4220 0.2361 0.0000
vt 0.1958 0.5499 0.0000
vt 0.1937 0.6464 0.0000
vt 0.0698 0.6435 0.0000
vt 0.0721 0.5472 0.0000
vt 0.3535 0.4868 0.0000
vt 0.4839 0.4868 0.0000
vt 0.4839 0.7189 0.0000
vt 0.3535 0.7189 0.0000
vt 0.8929 0.4819 0.0000
vt 0.7788 0.5234 0.0000
vt 0.0718 0.1609 0.0000
vt 0.1415 0.0537 0.0000
vt 0.1882 0.8784 0.0000
vt 0.1857 0.8809 0.0000
vt 0.0643 0.8780 0.0000
vt 0.3544 0.8874 0.0000
vt 0.4844 0.8880 0.0000
vt 0.4843 0.9473 0.0000
vt 0.3538 0.9466 0.0000
vt 0.7773 0.5268 0.0000
vt 0.9140 0.5400 0.0000
vt 0.7976 0.5824 0.0000
vt 0.0200 0.1272 0.0000
vt 0.0897 0.0200 0.0000
vt 0.1881 0.8834 0.0000
vt 0.1867 0.9452 0.0000
vt 0.0628 0.9423 0.0000
vt 0.3535 0.7224 0.0000
vt 0.4839 0.7224 0.0000
vt 0.4841 0.8844 0.0000
vt 0.3534 0.8844 0.0000
vt 0.6431 0.6389 0.0000
vt 0.6228 0.5834 0.0000
vt 0.1907 0.8810 0.0000
vt 0.3512 0.9490 0.0000
vt 0.2164 0.6582 0.0000
vt 0.2146 0.6551 0.0000
vt 0.2182 0.6551 0.0000
vt 0.7948 0.6246 0.0000
vt 0.7984 0.6246 0.0000
vt 0.6955 0.3041 0.0000
vt 0.2182 0.6799 0.0000
vt 0.2146 0.6800 0.0000
vt 0.2163 0.6768 0.0000
vt 0.6617 0.2074 0.0000
vt 0.6651 0.2083 0.0000
vt 0.6604 0.2115 0.0000
vt 0.5163 0.8809 0.0000
vt 0.7797 0.1674 0.0000
vt 0.7833 0.1691 0.0000
vt 0.0687 0.5467 0.0000
vt 0.0717 0.5438 0.0000
vt 0.7735 0.5247 0.0000
vt 0.7748 0.5219 0.0000
vt 0.6195 0.5841 0.0000
vt 0.6212 0.5804 0.0000
vt 0.9157 0.6714 0.0000
vt 0.7979 0.6244 0.0000
vt 0.3235 0.4796 0.0000
vt 0.3235 0.3493 0.0000
vt 0.6241 0.5230 0.0000
vt 0.6952 0.4137 0.0000
vt 0.0200 0.3492 0.0000
vt 0.0200 0.4796 0.0000
vt 0.6853 0.9062 0.0000
vt 0.8054 0.9542 0.0000
vt 0.8444 0.8593 0.0000
vt 0.9177 0.6761 0.0000
vt 0.7933 0.6264 0.0000
vt 0.7192 0.8120 0.0000
vt 0.6834 0.9016 0.0000
vt 0.8163 0.2601 0.0000
vt 0.0662 0.6434 0.0000
vt 0.1933 0.5463 0.0000
vt 0.8962 0.4807 0.0000
vt 0.0608 0.8779 0.0000
vt 0.9174 0.5388 0.0000
vt 0.0593 0.9397 0.0000
vt 0.6397 0.6401 0.0000
# 128 texture coords

o Box014
g Box014
usemtl Adorno2
s 1
f 1/1/1 2/2/2 3/3/3 4/4/4 
f 5/5/5 6/6/6 7/7/7 8/8/8 
f 9/9/9 10/10/10 11/11/11 12/12/12 
f 13/13/9 14/14/13 15/15/14 16/16/15 
s 2
f 10/17/10 4/18/4 3/19/3 17/20/16 18/21/17 19/22/18 11/23/11 
f 20/24/19 19/22/18 18/21/17 21/25/20 7/26/7 6/27/6 
s 1
f 17/28/16 22/29/21 23/30/22 18/31/17 
f 18/31/17 23/30/22 24/32/23 21/33/20 
f 25/34/24 26/35/25 27/36/26 28/37/27 
f 28/37/27 27/36/26 29/38/28 30/39/29 31/40/30 
f 32/41/31 30/42/29 29/43/28 33/44/25 34/45/32 
f 35/46/33 36/47/34 37/48/35 38/49/1 
s 2
f 20/50/19 6/51/6 39/52/36 40/53/37 
s 4
f 6/54/6 5/55/5 41/56/38 42/57/39 
s 1
f 32/41/31 34/45/32 43/58/32 44/59/40 
f 16/16/15 15/15/14 45/60/14 46/61/15 
s 2
f 39/52/36 6/51/6 42/62/39 47/63/18 48/64/36 
s 1
f 49/65/16 50/66/41 51/67/22 52/68/42 
f 53/69/43 44/59/40 43/58/32 54/70/32 55/71/44 
f 46/61/15 45/60/14 56/72/45 57/73/15 
s 2
f 48/64/36 47/63/18 58/74/18 59/75/18 60/76/46 
s 1
f 61/77/47 62/78/48 63/79/2 64/80/3 
f 53/69/43 55/71/44 65/81/27 66/82/24 
s 2
f 59/75/18 58/74/18 61/83/47 64/80/3 49/65/16 52/68/42 67/84/18 
f 9/85/9 26/86/25 1/87/1 
f 25/34/24 22/88/21 2/89/2 
f 5/90/5 30/42/29 32/41/31 
f 8/91/8 24/92/23 31/93/30 
f 12/94/12 35/95/33 29/43/28 27/96/26 
f 11/23/11 19/22/18 20/24/19 36/97/34 
s 4
f 38/98/1 13/99/9 33/44/25 
f 40/53/37 14/100/13 37/101/35 
s 2
f 42/62/39 61/83/47 58/74/18 47/63/18 
s 8
f 44/59/40 53/69/43 62/102/48 41/103/38 
s 2
f 66/82/24 50/104/41 63/105/2 
s 4
f 1/106/1 26/35/25 25/34/24 2/107/2 
s 8
f 2/108/2 22/29/21 17/28/16 3/109/3 
f 4/110/4 10/10/10 9/9/9 1/111/1 
s 4
f 7/112/7 21/33/20 24/32/23 8/113/8 
s 16
f 8/114/8 31/40/30 30/39/29 5/115/5 
s 4
f 35/46/33 12/12/12 11/11/11 36/47/34 
s 16
f 12/116/12 27/36/26 26/35/25 9/117/9 
s 32
f 22/118/21 25/34/24 28/37/27 23/119/22 
f 23/119/22 28/37/27 31/40/30 24/120/23 
s 8
f 16/121/15 34/45/32 33/44/25 13/99/9 
s 16
f 13/13/9 38/49/1 37/48/35 14/14/13 
s 8
f 14/100/13 40/53/37 39/52/36 15/122/14 
s 2
f 29/43/28 35/95/33 38/98/1 33/44/25 
s 32
f 36/123/34 20/50/19 40/53/37 37/101/35 
s 16
f 61/77/47 42/57/39 41/56/38 62/78/48 
s 8
f 5/90/5 32/41/31 44/59/40 41/103/38 
f 34/45/32 16/121/15 46/124/15 43/58/32 
f 15/122/14 39/52/36 48/64/36 45/125/14 
f 43/58/32 46/124/15 57/126/15 54/70/32 
f 45/125/14 48/64/36 60/76/46 56/127/45 
s 4
f 49/65/16 64/80/3 63/79/2 50/66/41 
s 8
f 50/104/41 66/82/24 65/81/27 51/128/22 
s 32
f 62/102/48 53/69/43 66/82/24 63/105/2 
# 51 polygons - 7 triangles

#
# object Box016
#

v  -174.5469 78.3134 112.9802
v  -174.5469 78.3134 76.2304
v  -30.8695 78.3134 76.2304
v  -30.8695 78.3134 112.9802
v  -174.5469 209.8222 112.9802
v  -30.8695 209.8222 112.9802
v  -30.8695 209.8222 76.2304
v  -174.5469 209.8222 76.2304
v  -174.5469 79.8252 114.4965
v  -30.8695 79.8252 114.4965
v  -30.8695 208.3104 114.4965
v  -174.5469 208.3104 114.4965
v  -29.8695 79.8252 112.9802
v  -29.8695 79.8252 74.7141
v  -29.8695 208.3104 74.7141
v  -29.8695 208.3104 112.9802
v  -174.5469 79.8252 74.7141
v  -174.5469 208.3104 74.7141
v  -175.5469 79.8252 76.2304
v  -175.5469 79.8252 112.9802
v  -175.5469 208.3104 112.9802
v  -175.5469 208.3104 76.2304
# 22 vertices

vn -0.3416 -0.8756 0.3416
vn -0.3416 -0.8756 -0.3416
vn 0.3002 -0.9054 -0.3002
vn 0.3416 -0.8756 0.3416
vn -0.3416 0.8756 0.3416
vn 0.3416 0.8756 0.3416
vn 0.3002 0.9054 -0.3002
vn -0.3416 0.8756 -0.3416
vn -0.3416 -0.3416 0.8756
vn 0.3416 -0.3416 0.8756
vn 0.3416 0.3416 0.8756
vn -0.3416 0.3416 0.8756
vn 0.8756 -0.3416 0.3416
vn 0.6507 -0.3914 -0.6507
vn 0.6507 0.3914 -0.6507
vn 0.8756 0.3416 0.3416
vn -0.3416 -0.3416 -0.8756
vn -0.3416 0.3416 -0.8756
vn -0.8756 -0.3416 -0.3416
vn -0.8756 -0.3416 0.3416
vn -0.8756 0.3416 0.3416
vn -0.8756 0.3416 -0.3416
# 22 vertex normals

vt 0.5583 0.8526 0.0000
vt 0.5593 0.9438 0.0000
vt 0.0188 0.9496 0.0000
vt 0.0178 0.8584 0.0000
vt 0.0200 0.7299 0.0000
vt 0.5605 0.7299 0.0000
vt 0.5605 0.8211 0.0000
vt 0.0200 0.8211 0.0000
vt 0.0227 0.3803 0.0000
vt 0.5632 0.3803 0.0000
vt 0.5632 0.7000 0.0000
vt 0.0227 0.7000 0.0000
vt 0.6060 0.0426 0.0000
vt 0.7009 0.0467 0.0000
vt 0.6873 0.3661 0.0000
vt 0.5924 0.3621 0.0000
vt 0.0200 0.0255 0.0000
vt 0.5643 0.0253 0.0000
vt 0.5644 0.3451 0.0000
vt 0.0201 0.3453 0.0000
vt 0.7309 0.0426 0.0000
vt 0.8221 0.0426 0.0000
vt 0.8221 0.3624 0.0000
vt 0.7309 0.3624 0.0000
vt 0.0200 0.3757 0.0000
vt 0.0253 0.3757 0.0000
vt 0.0222 0.8554 0.0000
vt 0.0226 0.8607 0.0000
vt 0.7357 0.0451 0.0000
vt 0.7312 0.0480 0.0000
vt 0.0261 0.7041 0.0000
vt 0.0209 0.7050 0.0000
vt 0.5893 0.3578 0.0000
vt 0.5946 0.3572 0.0000
vt 0.7360 0.3640 0.0000
vt 0.7321 0.3676 0.0000
vt 0.8221 0.0373 0.0000
vt 0.7309 0.0373 0.0000
vt 0.5643 0.0200 0.0000
vt 0.0238 0.0202 0.0000
vt 0.6973 0.0412 0.0000
vt 0.6063 0.0373 0.0000
vt 0.5632 0.3750 0.0000
vt 0.0227 0.3750 0.0000
vt 0.0227 0.7054 0.0000
vt 0.5632 0.7053 0.0000
vt 0.5922 0.3674 0.0000
vt 0.6833 0.3713 0.0000
vt 0.0239 0.3506 0.0000
vt 0.5644 0.3504 0.0000
vt 0.7309 0.3677 0.0000
vt 0.8221 0.3677 0.0000
vt 0.6007 0.0424 0.0000
vt 0.5871 0.3618 0.0000
vt 0.8274 0.3624 0.0000
vt 0.8274 0.0426 0.0000
vt 0.7256 0.0426 0.0000
vt 0.7256 0.3624 0.0000
# 58 texture coords

o Box016
g Box016
usemtl adorno1
s 1
f 68/129/49 69/130/50 70/131/51 71/132/52 
f 72/133/53 73/134/54 74/135/55 75/136/56 
f 76/137/57 77/138/58 78/139/59 79/140/60 
f 80/141/61 81/142/62 82/143/63 83/144/64 
s 2
f 81/145/62 84/146/65 85/147/66 82/148/63 
s 1
f 86/149/67 87/150/68 88/151/69 89/152/70 
s 2
f 76/137/57 87/153/68 68/154/49 
f 71/132/52 80/155/61 77/156/58 
s 4
f 86/149/67 84/157/65 69/158/50 
s 2
f 79/140/60 72/159/53 88/160/69 
f 83/144/64 73/161/54 78/162/59 
s 4
f 89/152/70 75/163/56 85/164/66 
s 8
f 68/165/49 87/150/68 86/149/67 69/166/50 
s 16
f 69/167/50 84/146/65 81/145/62 70/168/51 
s 4
f 70/169/51 81/142/62 80/141/61 71/170/52 
s 16
f 71/171/52 77/138/58 76/137/57 68/172/49 
s 4
f 72/173/53 79/140/60 78/139/59 73/174/54 
s 8
f 73/175/54 83/144/64 82/143/63 74/176/55 
s 16
f 74/177/55 82/148/63 85/147/66 75/178/56 
s 8
f 75/179/56 89/152/70 88/151/69 72/180/53 
s 32
f 77/181/58 80/141/61 83/144/64 78/182/59 
f 79/183/60 88/151/69 87/150/68 76/184/57 
f 84/185/65 86/149/67 89/152/70 85/186/66 
# 17 polygons - 6 triangles

#
# object Big
#

v  -88.9861 560.1845 101.1800
v  14.2548 560.1845 101.1800
v  14.2548 560.1845 -44.9207
v  -88.9861 560.1845 -44.9207
v  98.9915 20.5967 86.4347
v  98.9915 20.5967 -30.1754
v  98.9915 353.0972 -30.1754
v  98.9915 353.0972 86.4347
v  -157.7020 21.2653 -44.9207
v  -157.7020 21.2653 101.1800
v  -157.7020 445.1375 101.1800
v  -157.7020 445.1375 -44.9207
v  -155.7823 447.0572 102.7936
v  14.2548 447.0572 102.7936
v  14.2548 558.2648 102.7936
v  -89.8100 558.2648 102.7936
v  14.2548 447.0572 -46.5343
v  14.2548 558.2648 -46.5343
v  -155.7823 447.0572 -46.5343
v  -89.8100 558.2648 -46.5343
v  -156.7260 448.7102 -44.9207
v  -156.7260 448.7102 101.1800
v  -91.8819 558.5315 101.1800
v  -91.8819 558.5315 -44.9207
v  -157.5424 23.1784 102.7936
v  -155.7823 21.2653 102.7936
v  14.2548 21.2653 102.7936
v  -5.7247 260.6560 102.7936
v  -137.7225 260.6560 102.7936
v  -5.7247 420.2151 102.7936
v  -156.5558 445.5173 102.7936
v  -137.7225 420.2151 102.7936
v  -155.7823 21.2653 -46.5343
v  14.2548 21.2653 -46.5343
v  -97.5517 39.9658 -46.5343
v  4.3175 38.8808 -46.5343
v  -97.5517 428.3567 -46.5343
v  4.3175 429.4417 -46.5343
v  3.3743 40.5528 -44.9207
v  -95.7239 40.5528 -44.9207
v  -95.7239 427.7697 -44.9207
v  3.3743 427.7697 -44.9207
# 42 vertices

vn -0.2167 0.9151 0.3402
vn 0.6303 0.7173 0.2971
vn 0.6303 0.7173 -0.2971
vn -0.2167 0.9151 -0.3402
vn 0.7835 0.0000 0.6214
vn 0.7835 0.0000 -0.6214
vn 0.7928 0.2702 -0.5464
vn 0.7928 0.2702 0.5464
vn -0.9239 0.0000 -0.3826
vn -0.9606 -0.1774 0.2141
vn -0.9604 0.1205 0.2512
vn -0.9298 0.1032 -0.3533
vn -0.3791 0.2031 0.9028
vn 0.5738 0.1952 0.7954
vn 0.6303 0.2971 0.7173
vn -0.2450 0.4299 0.8690
vn 0.5738 0.1952 -0.7954
vn 0.6303 0.2971 -0.7173
vn -0.4558 0.1371 -0.8795
vn -0.2450 0.4299 -0.8690
vn -0.8655 0.3811 -0.3250
vn -0.8655 0.3811 0.3250
vn -0.6778 0.6519 0.3402
vn -0.6778 0.6519 -0.3402
vn -0.6734 -0.1308 0.7276
vn -0.2067 -0.1901 0.9598
vn 0.1129 -0.0000 0.9936
vn 0.0000 -0.0000 1.0000
vn -0.0000 -0.0000 1.0000
vn 0.0000 0.0000 1.0000
vn -0.5487 0.1577 0.8210
vn -0.0000 0.0000 1.0000
vn -0.3826 0.0000 -0.9239
vn 0.1129 0.0000 -0.9936
vn 0.1641 0.1323 -0.9775
vn -0.1332 0.1514 -0.9795
vn 0.1641 -0.1323 -0.9775
vn -0.1332 -0.1514 -0.9795
vn -0.5994 0.4340 -0.6725
vn 0.4057 0.6915 -0.5977
vn 0.4057 -0.6915 -0.5977
vn -0.5994 -0.4340 -0.6725
# 42 vertex normals

vt 0.3450 0.1456 0.0000
vt 0.3655 0.0330 0.0000
vt 0.5550 0.0675 0.0000
vt 0.5345 0.1801 0.0000
vt 0.7371 0.0309 0.0000
vt 0.8857 0.0200 0.0000
vt 0.9065 0.3869 0.0000
vt 0.7698 0.3969 0.0000
vt 0.2830 0.4880 0.0000
vt 0.4756 0.4880 0.0000
vt 0.4756 0.9578 0.0000
vt 0.2830 0.9578 0.0000
vt 0.0200 0.3335 0.0000
vt 0.1356 0.1847 0.0000
vt 0.2329 0.2602 0.0000
vt 0.1622 0.3513 0.0000
vt 0.1288 0.0200 0.0000
vt 0.3238 0.0475 0.0000
vt 0.3066 0.1695 0.0000
vt 0.3042 0.1713 0.0000
vt 0.1134 0.1445 0.0000
vt 0.1116 0.1421 0.0000
vt 0.6232 0.2020 0.0000
vt 0.6782 0.3822 0.0000
vt 0.5390 0.3483 0.0000
vt 0.5053 0.2380 0.0000
vt 0.7217 0.7570 0.0000
vt 0.7289 0.5645 0.0000
vt 0.8701 0.5698 0.0000
vt 0.8629 0.7622 0.0000
vt 0.0373 0.4925 0.0000
vt 0.0392 0.4904 0.0000
vt 0.2275 0.4836 0.0000
vt 0.2149 0.7496 0.0000
vt 0.0687 0.7548 0.0000
vt 0.2444 0.9553 0.0000
vt 0.2212 0.9263 0.0000
vt 0.0560 0.9620 0.0000
vt 0.0551 0.9603 0.0000
vt 0.0750 0.9315 0.0000
vt 0.5943 0.7056 0.0000
vt 0.5925 0.7078 0.0000
vt 0.5914 0.7050 0.0000
vt 0.5939 0.6846 0.0000
vt 0.5948 0.6863 0.0000
vt 0.5930 0.6887 0.0000
vt 0.5914 0.6849 0.0000
vt 0.7176 0.7576 0.0000
vt 0.7206 0.7598 0.0000
vt 0.8713 0.5671 0.0000
vt 0.8737 0.5697 0.0000
vt 0.8664 0.7626 0.0000
vt 0.8639 0.7650 0.0000
vt 0.2830 0.9619 0.0000
vt 0.4756 0.9619 0.0000
vt 0.4781 0.9582 0.0000
vt 0.4777 0.4901 0.0000
vt 0.2800 0.4880 0.0000
vt 0.2800 0.9599 0.0000
vt 0.0226 0.2140 0.0000
vt 0.0200 0.2122 0.0000
vt 0.3739 0.2632 0.0000
vt 0.3709 0.2642 0.0000
vt 0.7280 0.5616 0.0000
vt 0.5053 0.4795 0.0000
vt 0.6940 0.4793 0.0000
vt 0.6295 0.4999 0.0000
vt 0.5162 0.4990 0.0000
vt 0.6940 0.9518 0.0000
vt 0.6295 0.9312 0.0000
vt 0.5053 0.9516 0.0000
vt 0.5162 0.9321 0.0000
vt 0.5179 0.5013 0.0000
vt 0.6271 0.5011 0.0000
vt 0.6271 0.9300 0.0000
vt 0.5179 0.9299 0.0000
vt 0.9800 0.0216 0.0000
vt 0.9674 0.5077 0.0000
vt 0.7270 0.5252 0.0000
vt 0.6439 0.0461 0.0000
# 80 texture coords

o Big
g Big
usemtl base
s 2
f 90/187/71 91/188/72 92/189/73 93/190/74 
s 4
f 94/191/75 95/192/76 96/193/77 97/194/78 
s 2
f 98/195/79 99/196/80 100/197/81 101/198/82 
s 8
f 102/199/83 103/200/84 104/201/85 105/202/86 
s 4
f 103/203/84 106/204/87 107/205/88 92/206/73 91/207/72 104/208/85 
s 2
f 106/209/87 108/210/89 109/211/90 107/212/88 
f 110/213/91 111/214/92 112/215/93 113/216/94 
s 8
f 114/217/95 115/218/96 116/219/97 117/220/98 118/221/99 
f 116/219/97 103/222/84 119/223/100 117/220/98 
f 103/222/84 102/224/83 120/225/101 121/226/102 119/223/100 
f 120/225/101 114/217/95 118/221/99 121/226/102 
s 4
f 115/227/96 114/228/95 99/229/80 
s 2
f 120/230/101 102/231/83 111/232/92 100/233/81 
s 8
f 101/234/82 110/213/91 108/235/89 
s 2
f 105/236/86 90/237/71 112/215/93 
s 8
f 113/216/94 93/238/74 109/239/90 
s 2
f 110/240/91 101/198/82 100/197/81 111/241/92 
f 120/242/101 100/197/81 99/196/80 114/243/95 
s 8
f 122/244/103 98/195/79 101/198/82 108/245/89 
s 2
f 90/246/71 105/247/86 104/208/85 91/207/72 
s 8
f 92/206/73 107/205/88 109/248/90 93/249/74 
s 2
f 93/238/74 113/216/94 112/215/93 90/237/71 
f 111/214/92 102/250/83 105/236/86 112/215/93 
s 8
f 108/235/89 110/213/91 113/216/94 109/239/90 
s 2
f 123/251/104 122/252/103 124/253/105 125/254/106 
f 122/252/103 108/255/89 126/256/107 124/253/105 
f 108/255/89 106/257/87 127/258/108 126/256/107 
f 106/257/87 123/251/104 125/254/106 127/258/108 
s 1
f 128/259/109 125/254/106 124/253/105 129/260/110 
s 8
f 129/260/110 124/253/105 126/256/107 130/261/111 
s 1
f 130/261/111 126/256/107 127/258/108 131/262/112 
s 4
f 131/262/112 127/258/108 125/254/106 128/259/109 
s off
f 123/263/104 106/264/87 96/193/77 95/192/76 
f 106/264/87 103/265/84 97/194/78 96/193/77 
f 103/265/84 116/266/97 94/191/75 97/194/78 
# 31 polygons - 4 triangles

#
# object square
#

v  -137.7225 260.6560 93.5763
v  -5.7247 260.6560 93.5763
v  -5.7247 420.2151 93.5763
v  -137.7225 420.2151 93.5763
v  3.3743 40.5528 -35.8898
v  -95.7239 40.5528 -35.8898
v  -95.7239 427.7697 -35.8898
v  3.3743 427.7697 -35.8898
v  -137.7225 260.6560 102.7936
v  -5.7247 260.6560 102.7936
v  -5.7247 420.2151 102.7936
v  -137.7225 420.2151 102.7936
v  3.3743 40.5528 -44.9207
v  -95.7239 40.5528 -44.9207
v  -95.7239 427.7697 -44.9207
v  3.3743 427.7697 -44.9207
# 16 vertices

vn 0.5774 0.5774 0.5774
vn -0.5774 0.5774 0.5774
vn -0.5774 -0.5774 0.5774
vn 0.5774 -0.5774 0.5774
vn -0.5774 0.5774 -0.5774
vn 0.5774 0.5774 -0.5774
vn 0.5774 -0.5774 -0.5774
vn -0.5774 -0.5774 -0.5774
vn 0.7071 0.7071 -0.0000
vn -0.7071 0.7071 -0.0000
vn -0.7071 -0.7071 -0.0000
vn 0.7071 -0.7071 -0.0000
# 12 vertex normals

vt 0.4194 0.5426 0.0000
vt 0.4169 0.8498 0.0000
vt 0.0455 0.8468 0.0000
vt 0.0480 0.5395 0.0000
vt 0.0589 0.4763 0.0000
vt 0.0571 0.2456 0.0000
vt 0.9584 0.2385 0.0000
vt 0.9603 0.4692 0.0000
vt 0.4449 0.5428 0.0000
vt 0.4424 0.8500 0.0000
vt 0.4167 0.8754 0.0000
vt 0.0452 0.8723 0.0000
vt 0.0199 0.8466 0.0000
vt 0.0225 0.5393 0.0000
vt 0.0482 0.5140 0.0000
vt 0.4196 0.5170 0.0000
vt 0.0339 0.4765 0.0000
vt 0.0321 0.2458 0.0000
vt 0.0569 0.2206 0.0000
vt 0.9582 0.2135 0.0000
vt 0.9835 0.2383 0.0000
vt 0.9853 0.4690 0.0000
vt 0.9605 0.4942 0.0000
vt 0.0591 0.5013 0.0000
# 24 texture coords

o square
g square
usemtl Square
s 1
f 132/267/113 133/268/114 134/269/115 135/270/116 
f 136/271/117 137/272/118 138/273/119 139/274/120 
s 2
f 140/275/121 141/276/122 133/268/114 132/267/113 
s 4
f 141/277/122 142/278/123 134/269/115 133/268/114 
s 2
f 142/279/123 143/280/124 135/270/116 134/269/115 
s 4
f 143/281/124 140/282/121 132/267/113 135/270/116 
s 2
f 144/283/122 145/284/121 137/272/118 136/271/117 
s 4
f 145/285/121 146/286/124 138/273/119 137/272/118 
s 2
f 146/287/124 147/288/123 139/274/120 138/273/119 
s 4
f 147/289/123 144/290/122 136/271/117 139/274/120 
# 10 polygons

