# 3ds Max Wavefront OBJ Exporter v0.97b - (c)2007 guruware
# File Created: 30.12.2018 21:37:47

mtllib ColumnaLittle.mtl

#
# object Box018
#

v  -22.2753 108.6072 18.6723
v  -21.3806 108.6072 19.5669
v  21.3806 108.6072 19.5669
v  22.2753 108.6072 18.6723
v  22.2753 108.6072 -18.6722
v  21.3806 108.6072 -19.5669
v  -21.3806 108.6072 -19.5669
v  -22.2753 108.6072 -18.6722
v  17.7789 91.5091 16.4031
v  21.0283 99.9667 19.2575
v  -21.0283 99.9667 19.2575
v  -17.7789 91.5091 16.4031
v  18.6735 91.5091 -15.5084
v  21.9230 99.9667 -18.3628
v  21.9230 99.9667 18.3628
v  18.6735 91.5091 15.5085
v  -17.7789 91.5091 -16.4031
v  -21.0283 99.9667 -19.2575
v  21.0283 99.9667 -19.2575
v  17.7789 91.5091 -16.4031
v  -18.6735 91.5091 15.5085
v  -21.9230 99.9667 18.3628
v  -21.9230 99.9667 -18.3628
v  -18.6735 91.5091 -15.5084
v  24.7818 99.7602 24.2940
v  25.3635 109.3322 24.6367
v  -25.3635 109.3322 24.6367
v  -24.8037 99.6597 24.3526
v  27.3051 99.5027 -21.7759
v  27.6989 109.1631 -22.2591
v  27.6989 109.1631 22.2591
v  27.3466 99.4267 21.7919
v  -24.7818 99.7602 -24.2939
v  -25.3635 109.3322 -24.6367
v  25.3635 109.3322 -24.6367
v  24.8037 99.6597 -24.3526
v  -27.3051 99.5027 21.7759
v  -27.6989 109.1631 22.2591
v  -27.6989 109.1631 -22.2591
v  -27.3466 99.4267 -21.7918
v  -13.3769 91.5091 12.8066
v  13.3769 91.5090 12.8066
v  -14.2716 91.5090 -11.9119
v  -14.2716 91.5091 11.9119
v  13.3769 91.5090 -12.8066
v  -13.3769 91.5090 -12.8066
v  14.2716 91.5090 11.9119
v  14.2716 91.5090 -11.9119
# 48 vertices

vn 0.0091 1.0000 -0.0030
vn 0.0037 0.9999 -0.0125
vn -0.0037 0.9999 -0.0125
vn -0.0091 1.0000 -0.0030
vn -0.0091 1.0000 0.0030
vn -0.0037 0.9999 0.0125
vn 0.0037 0.9999 0.0125
vn 0.0091 1.0000 0.0030
vn 0.0563 -0.9707 0.2335
vn 0.0583 -0.9919 0.1128
vn -0.0578 -0.9921 0.1111
vn -0.0563 -0.9707 0.2335
vn 0.2113 -0.9755 -0.0606
vn 0.1062 -0.9930 -0.0523
vn 0.1050 -0.9931 0.0519
vn 0.2113 -0.9755 0.0606
vn -0.0563 -0.9707 -0.2335
vn -0.0583 -0.9919 -0.1128
vn 0.0578 -0.9921 -0.1111
vn 0.0563 -0.9707 -0.2335
vn -0.2113 -0.9755 0.0606
vn -0.1062 -0.9930 0.0523
vn -0.1050 -0.9931 -0.0519
vn -0.2113 -0.9755 -0.0606
vn 0.2099 -0.7390 0.6402
vn 0.3734 0.5120 0.7736
vn -0.3704 0.5263 0.7654
vn -0.2240 -0.7265 0.6496
vn 0.6255 -0.7475 -0.2237
vn 0.7846 0.5096 -0.3531
vn 0.7788 0.5200 0.3508
vn 0.6313 -0.7384 0.2371
vn -0.2099 -0.7390 -0.6402
vn -0.3734 0.5120 -0.7736
vn 0.3704 0.5263 -0.7654
vn 0.2240 -0.7265 -0.6496
vn -0.6255 -0.7475 0.2237
vn -0.7846 0.5096 0.3531
vn -0.7788 0.5200 -0.3508
vn -0.6313 -0.7384 -0.2371
vn -0.0000 -1.0000 -0.0000
vn 0.0000 -1.0000 0.0000
vn 0.0000 -1.0000 -0.0000
# 43 vertex normals

vt 0.7846 0.9722 0.0000
vt 0.7768 0.9800 0.0000
vt 0.4046 0.9800 0.0000
vt 0.3968 0.9722 0.0000
vt 0.3968 0.6471 0.0000
vt 0.4046 0.6393 0.0000
vt 0.7768 0.6393 0.0000
vt 0.7846 0.6471 0.0000
vt 0.4933 0.3355 0.0000
vt 0.3162 0.3594 0.0000
vt 0.3162 0.0499 0.0000
vt 0.4933 0.0738 0.0000
vt 0.5830 0.5729 0.0000
vt 0.7306 0.5919 0.0000
vt 0.7306 0.3483 0.0000
vt 0.5830 0.3673 0.0000
vt 0.0697 0.5441 0.0000
vt 0.0488 0.7060 0.0000
vt 0.3192 0.7060 0.0000
vt 0.2984 0.5441 0.0000
vt 0.9077 0.2611 0.0000
vt 0.7736 0.2774 0.0000
vt 0.7736 0.0667 0.0000
vt 0.9077 0.0831 0.0000
vt 0.2614 0.3890 0.0000
vt 0.0609 0.3933 0.0000
vt 0.0609 0.0200 0.0000
vt 0.2635 0.0241 0.0000
vt 0.7669 0.6136 0.0000
vt 0.9354 0.6168 0.0000
vt 0.9354 0.3216 0.0000
vt 0.7655 0.3247 0.0000
vt 0.0237 0.7553 0.0000
vt 0.0200 0.9386 0.0000
vt 0.3461 0.9386 0.0000
vt 0.3425 0.7534 0.0000
vt 0.7173 0.3036 0.0000
vt 0.5641 0.3064 0.0000
vt 0.5641 0.0510 0.0000
vt 0.7185 0.0536 0.0000
vt 0.4933 0.1062 0.0000
vt 0.4933 0.3031 0.0000
vt 0.9077 0.1037 0.0000
vt 0.9077 0.2404 0.0000
vt 0.2700 0.5441 0.0000
vt 0.0980 0.5441 0.0000
vt 0.5830 0.3911 0.0000
vt 0.5830 0.5491 0.0000
vt 0.5614 0.3200 0.0000
vt 0.7148 0.3184 0.0000
vt 0.5830 0.3613 0.0000
vt 0.7306 0.3424 0.0000
vt 0.3041 0.5441 0.0000
vt 0.3250 0.7060 0.0000
vt 0.9077 0.0780 0.0000
vt 0.7736 0.0616 0.0000
vt 0.7736 0.2826 0.0000
vt 0.9077 0.2662 0.0000
vt 0.7714 0.3081 0.0000
vt 0.9384 0.3059 0.0000
vt 0.3586 0.7504 0.0000
vt 0.3612 0.9353 0.0000
vt 0.7132 0.0393 0.0000
vt 0.5614 0.0373 0.0000
vt 0.4933 0.3421 0.0000
vt 0.4933 0.3097 0.0000
vt 0.9077 0.2456 0.0000
vt 0.0640 0.5441 0.0000
vt 0.0923 0.5441 0.0000
vt 0.5830 0.5789 0.0000
vt 0.5830 0.5550 0.0000
vt 0.0200 0.3660 0.0000
vt 0.0200 0.0513 0.0000
vt 0.5181 0.2931 0.0000
vt 0.5181 0.2880 0.0000
vt 0.5181 0.0737 0.0000
vt 0.5181 0.0686 0.0000
vt 0.0456 0.9790 0.0000
vt 0.3205 0.9790 0.0000
vt 0.3263 0.9790 0.0000
vt 0.9688 0.5993 0.0000
vt 0.9688 0.3517 0.0000
vt 0.9688 0.3457 0.0000
# 83 texture coords

o Box018
g Box018
usemtl Material__3
s 1
f 1/1/1 2/2/2 3/3/3 4/4/4 5/5/5 6/6/6 7/7/7 8/8/8 
s 2
f 9/9/9 10/10/10 11/11/11 12/12/12 
f 13/13/13 14/14/14 15/15/15 16/16/16 
f 17/17/17 18/18/18 19/19/19 20/20/20 
f 21/21/21 22/22/22 23/23/23 24/24/24 
s 4
f 25/25/25 26/26/26 27/27/27 28/28/28 
f 29/29/29 30/30/30 31/31/31 32/32/32 
f 33/33/33 34/34/34 35/35/35 36/36/36 
f 37/37/37 38/38/38 39/39/39 40/40/40 
s 2
f 9/9/9 12/12/12 41/41/41 42/42/42 
f 21/21/21 24/24/24 43/43/41 44/44/42 
f 17/17/17 20/20/20 45/45/43 46/46/41 
f 13/13/13 16/16/16 47/47/42 48/48/43 
s 8
f 27/49/27 38/38/38 37/37/37 28/50/28 
s 2
f 9/51/9 16/16/16 15/15/15 10/52/10 
f 13/53/13 20/20/20 19/19/19 14/54/14 
f 17/55/17 24/24/24 23/23/23 18/56/18 
f 11/57/11 22/22/22 21/21/21 12/58/12 
s 8
f 25/59/25 32/32/32 31/31/31 26/60/26 
f 29/61/29 36/36/36 35/35/35 30/62/30 
f 33/63/33 40/40/40 39/39/39 34/64/34 
s 2
f 16/65/16 9/9/9 42/42/42 47/66/42 
f 12/58/12 21/21/21 44/44/42 41/67/41 
f 24/68/24 17/17/17 46/46/41 43/69/41 
f 20/70/20 13/13/13 48/48/43 45/71/43 
s off
f 3/72/3 2/73/2 27/27/27 26/26/26 
f 2/74/2 1/75/1 38/38/38 27/49/27 
f 1/75/1 8/76/8 39/39/39 38/38/38 
f 8/76/8 7/77/7 34/64/34 39/39/39 
f 7/78/7 6/79/6 35/35/35 34/34/34 
f 6/79/6 5/80/5 30/62/30 35/35/35 
f 5/81/5 4/82/4 31/31/31 30/30/30 
f 4/82/4 3/83/3 26/60/26 31/31/31 
f 11/11/11 10/10/10 25/25/25 28/28/28 
f 10/52/10 15/15/15 32/32/32 25/59/25 
f 15/15/15 14/14/14 29/29/29 32/32/32 
f 14/54/14 19/19/19 36/36/36 29/61/29 
f 19/19/19 18/18/18 33/33/33 36/36/36 
f 18/56/18 23/23/23 40/40/40 33/63/33 
f 23/23/23 22/22/22 37/37/37 40/40/40 
f 22/22/22 11/57/11 28/50/28 37/37/37 
# 41 polygons

#
# object base
#

v  -13.3769 8.0259 12.8066
v  13.3769 8.0259 12.8066
v  13.3769 50.2922 12.8066
v  -13.3769 50.2922 12.8066
v  14.2716 8.0259 11.9119
v  14.2716 8.0259 -11.9119
v  14.2716 50.2922 -11.9119
v  14.2716 50.2922 11.9119
v  13.3769 8.0259 -12.8066
v  -13.3769 8.0259 -12.8066
v  -13.3769 50.2922 -12.8066
v  13.3769 50.2922 -12.8066
v  -14.2716 8.0259 -11.9119
v  -14.2716 8.0259 11.9119
v  -14.2716 50.2922 11.9119
v  -14.2716 50.2922 -11.9119
v  -13.3769 91.5091 12.8066
v  -14.2716 91.5091 11.9119
v  13.0250 8.0259 11.9571
v  -13.0250 8.0259 11.9571
v  -13.0250 0.3102 11.9571
v  13.0250 0.3102 11.9571
v  13.4221 8.0259 -11.5601
v  13.4221 8.0259 11.5601
v  13.4221 0.3102 11.5600
v  13.4221 0.3102 -11.5600
v  -13.0250 8.0259 -11.9571
v  13.0250 8.0259 -11.9571
v  13.0250 0.3102 -11.9571
v  -13.0250 0.3102 -11.9571
v  -13.4221 8.0259 11.5601
v  -13.4221 8.0259 -11.5601
v  -13.4221 0.3102 -11.5600
v  -13.4221 0.3102 11.5600
v  13.3769 91.5090 12.8066
v  14.2716 91.5090 -11.9119
v  14.2716 91.5090 11.9119
v  -13.3769 91.5090 -12.8066
v  13.3769 91.5090 -12.8066
v  -14.2716 91.5090 -11.9119
# 40 vertices

vn -0.2972 -0.6302 0.7173
vn 0.2971 -0.6303 0.7173
vn 0.3826 0.0000 0.9239
vn -0.3827 -0.0000 0.9239
vn 0.7173 -0.6303 0.2971
vn 0.7173 -0.6303 -0.2971
vn 0.9239 -0.0000 -0.3827
vn 0.9239 0.0000 0.3826
vn 0.2972 -0.6302 -0.7173
vn -0.2971 -0.6303 -0.7173
vn -0.3827 0.0000 -0.9239
vn 0.3827 -0.0000 -0.9239
vn -0.7173 -0.6302 -0.2972
vn -0.7173 -0.6303 0.2971
vn -0.9239 -0.0000 0.3827
vn -0.9239 0.0000 -0.3827
vn -0.3826 0.0000 0.9239
vn 0.2274 -0.8042 0.5492
vn -0.2274 -0.8042 0.5492
vn -0.3827 0.0000 0.9239
vn 0.3827 0.0000 0.9239
vn 0.5491 -0.8042 -0.2275
vn 0.5491 -0.8042 0.2275
vn 0.9239 -0.0000 -0.3826
vn -0.2274 -0.8042 -0.5492
vn 0.2274 -0.8042 -0.5492
vn 0.3827 0.0000 -0.9239
vn -0.5491 -0.8042 0.2275
vn -0.5491 -0.8042 -0.2275
vn -0.9239 0.0000 -0.3826
vn -0.9239 -0.0000 0.3826
vn 0.3826 0.0000 -0.9239
# 32 vertex normals

vt 0.4734 0.5388 0.0000
vt 0.4735 0.7648 0.0000
vt 0.2440 0.7648 0.0000
vt 0.2439 0.5388 0.0000
vt 0.7637 0.4975 0.0000
vt 0.9402 0.4975 0.0000
vt 0.9402 0.7270 0.0000
vt 0.7637 0.7270 0.0000
vt 0.4791 0.0201 0.0000
vt 0.7051 0.0200 0.0000
vt 0.7051 0.2496 0.0000
vt 0.4791 0.2497 0.0000
vt 0.5112 0.4975 0.0000
vt 0.6877 0.4975 0.0000
vt 0.6877 0.7270 0.0000
vt 0.5112 0.7270 0.0000
vt 0.4735 0.8046 0.0000
vt 0.2440 0.8046 0.0000
vt 0.9800 0.4975 0.0000
vt 0.9800 0.7270 0.0000
vt 0.7449 0.0200 0.0000
vt 0.7449 0.2495 0.0000
vt 0.7275 0.9507 0.0000
vt 0.6877 0.9507 0.0000
vt 0.7275 0.7270 0.0000
vt 0.3557 0.4589 0.0000
vt 0.0616 0.4575 0.0000
vt 0.0606 0.3740 0.0000
vt 0.3548 0.3754 0.0000
vt 0.3124 0.2542 0.0000
vt 0.0606 0.2542 0.0000
vt 0.0606 0.1737 0.0000
vt 0.3124 0.1737 0.0000
vt 0.3531 0.3565 0.0000
vt 0.0616 0.3567 0.0000
vt 0.0606 0.2721 0.0000
vt 0.3521 0.2719 0.0000
vt 0.3124 0.1564 0.0000
vt 0.0606 0.1564 0.0000
vt 0.0606 0.0759 0.0000
vt 0.3124 0.0759 0.0000
vt 0.3464 0.1564 0.0000
vt 0.3463 0.0759 0.0000
vt 0.3910 0.4585 0.0000
vt 0.3900 0.3750 0.0000
vt 0.3464 0.2542 0.0000
vt 0.3463 0.1737 0.0000
vt 0.3888 0.3561 0.0000
vt 0.3878 0.2715 0.0000
vt 0.4543 0.0352 0.0000
vt 0.4543 0.4888 0.0000
vt 0.4399 0.4828 0.0000
vt 0.4399 0.0411 0.0000
vt 0.4391 0.5040 0.0000
vt 0.4332 0.4896 0.0000
vt 0.0352 0.5040 0.0000
vt 0.0411 0.4896 0.0000
vt 0.0200 0.4888 0.0000
vt 0.0344 0.4828 0.0000
vt 0.0200 0.0352 0.0000
vt 0.0344 0.0411 0.0000
vt 0.0352 0.0200 0.0000
vt 0.0411 0.0344 0.0000
vt 0.4391 0.0200 0.0000
vt 0.4332 0.0344 0.0000
vt 0.0201 0.7648 0.0000
vt 0.0200 0.5389 0.0000
vt 0.9402 0.9507 0.0000
vt 0.7637 0.9507 0.0000
vt 0.7051 0.4734 0.0000
vt 0.4792 0.4735 0.0000
vt 0.5112 0.9507 0.0000
vt 0.0201 0.8047 0.0000
vt 0.9800 0.9507 0.0000
vt 0.7450 0.4734 0.0000
vt 0.7275 0.4975 0.0000
# 76 texture coords

o base
g base
usemtl Material__2
s 1
f 49/84/44 50/85/45 51/86/46 52/87/47 
f 53/88/48 54/89/49 55/90/50 56/91/51 
f 57/92/52 58/93/53 59/94/54 60/95/55 
f 61/96/56 62/97/57 63/98/58 64/99/59 
s 8
f 50/85/45 53/100/48 56/101/51 51/86/46 
f 54/89/49 57/102/52 60/103/55 55/90/50 
f 58/93/53 61/104/56 64/105/59 59/94/54 
f 65/106/60 66/107/58 63/98/58 52/108/47 
s off
f 67/109/61 68/110/62 69/111/63 70/112/64 
f 71/113/65 72/114/66 73/115/51 74/116/67 
f 75/117/68 76/118/69 77/119/70 78/120/54 
f 79/121/71 80/122/72 81/123/73 82/124/74 
f 68/125/62 79/121/71 82/124/74 69/126/63 
f 72/127/66 67/109/61 70/112/64 73/128/51 
f 76/129/69 71/113/65 74/116/67 77/130/70 
f 80/131/72 75/117/68 78/120/54 81/132/73 
f 50/133/45 49/134/44 68/135/62 67/136/61 
f 49/134/44 62/137/57 79/138/71 68/135/62 
f 62/137/57 61/139/56 80/140/72 79/138/71 
f 61/139/56 58/141/53 75/142/68 80/140/72 
f 58/141/53 57/143/52 76/144/69 75/142/68 
f 57/143/52 54/145/49 71/146/65 76/144/69 
f 54/145/49 53/147/48 72/148/66 71/146/65 
f 53/147/48 50/133/45 67/136/61 72/148/66 
s 1
f 51/86/46 83/149/46 65/150/60 52/87/47 
f 55/90/50 84/151/50 85/152/51 56/91/51 
f 59/94/54 86/153/54 87/154/75 60/95/55 
f 63/98/58 66/107/58 88/155/73 64/99/59 
s 8
f 56/101/51 85/156/51 83/149/46 51/86/46 
f 60/103/55 87/157/75 84/151/50 55/90/50 
f 64/105/59 88/158/73 86/153/54 59/94/54 
f 63/98/58 62/97/57 49/159/44 52/108/47 
# 32 polygons

