# 3ds Max Wavefront OBJ Exporter v0.97b - (c)2007 guruware
# File Created: 03.01.2019 16:02:18

mtllib Construccion_Pared.mtl

#
# object Box025
#

v  124.3288 0.0000 4.9156
v  52.9761 0.0000 4.9156
v  52.9761 0.0000 -4.9156
v  124.3288 0.0000 -4.9156
v  123.7533 122.9473 4.9156
v  123.7533 122.9473 -4.9156
v  52.9761 122.9473 -4.9156
v  52.9761 122.9473 4.9156
v  -123.7533 0.0000 9.8927
v  -53.2170 0.0000 9.8927
v  -50.1025 23.3034 9.8927
v  -123.7533 23.3034 9.8927
v  123.7533 23.3034 9.8927
v  123.7533 29.3040 9.8927
v  52.7298 29.3594 9.8927
v  49.8617 23.3034 9.8927
v  -53.2170 0.0000 4.9156
v  -124.3288 0.0000 4.9156
v  -124.3288 0.0000 -4.9156
v  -53.2170 0.0000 -4.9156
v  -53.2170 122.9473 -4.9156
v  -123.7533 122.9473 -4.9156
v  -123.7533 122.9473 4.9156
v  -53.2170 122.9473 4.9156
v  52.9761 0.0000 9.8927
v  -52.9706 29.3594 9.8927
v  -123.7533 29.3040 9.8927
v  123.7533 0.0000 9.8927
v  124.3288 0.0000 9.3171
v  124.3288 23.3034 4.9156
v  124.3288 23.3034 9.3171
v  124.3288 29.3040 4.9156
v  124.3288 29.3040 9.3171
v  123.7533 29.8796 4.9156
v  52.9761 29.8796 4.9156
v  52.9761 29.8796 9.3171
v  123.7533 29.8796 9.3171
v  -53.2170 29.8796 4.9156
v  -53.2170 29.8796 9.3171
v  -52.6414 29.8796 9.8927
v  52.4006 29.8796 9.8927
v  -123.7533 29.8796 4.9156
v  -123.7533 29.8796 9.3171
v  -124.3288 29.3040 4.9156
v  -124.3288 23.3034 4.9156
v  -124.3288 23.3034 9.3171
v  -124.3288 29.3040 9.3171
v  -124.3288 0.0000 9.3171
v  -53.2170 116.1439 9.3974
v  -53.2170 122.3718 9.3974
v  -123.7533 122.3718 9.3974
v  -123.7533 116.1439 9.3974
v  52.9761 116.1439 9.3974
v  52.9761 122.3718 9.3974
v  123.7533 116.1439 9.3974
v  123.7533 122.3718 9.3974
v  -123.7533 122.9473 8.8218
v  -53.2170 122.9473 8.8218
v  -124.3288 122.3718 4.9156
v  -124.3288 116.1439 4.9156
v  -124.3288 116.1439 8.8218
v  -124.3288 122.3718 8.8218
v  -123.7533 115.5684 4.9156
v  -53.2170 115.5684 4.9156
v  -53.2170 115.5684 8.8218
v  -123.7533 115.5684 8.8218
v  52.9761 115.5684 4.9156
v  52.9761 115.5684 8.8218
v  123.7533 115.5684 4.9156
v  123.7533 115.5684 8.8218
v  124.3288 116.1439 4.9156
v  124.3288 122.3718 4.9156
v  124.3288 122.3718 8.8218
v  124.3288 116.1439 8.8218
v  52.9761 122.9473 8.8218
v  123.7533 122.9473 8.8218
v  124.3288 29.8796 4.3400
v  -124.3288 29.8796 4.3401
v  124.3288 115.5684 4.3400
v  -124.3288 115.5684 4.3401
v  124.3288 122.3718 -4.9156
v  -124.3288 122.3718 -4.9156
# 82 vertices

vn 0.4472 -0.8944 -0.0000
vn 0.0000 -1.0000 -0.0000
vn 0.3826 0.9239 -0.0000
vn 0.0000 1.0000 -0.0000
vn -0.2971 -0.6303 0.7173
vn 0.0000 -0.7071 0.7071
vn 0.0000 0.0000 1.0000
vn -0.3827 0.0000 0.9239
vn 0.3827 0.0000 0.9239
vn 0.3417 0.3415 0.8756
vn 0.1927 0.3582 0.9135
vn -0.4472 -0.8944 0.0000
vn -0.3826 0.9239 0.0000
vn -0.1927 0.3582 0.9135
vn -0.3417 0.3415 0.8756
vn 0.2971 -0.6303 0.7173
vn 0.7173 -0.6303 0.2971
vn 1.0000 0.0000 -0.0000
vn 0.9239 0.0000 0.3827
vn 0.8749 0.4567 0.1610
vn 0.8756 0.3416 0.3416
vn 0.4567 0.8749 0.1610
vn 0.0845 0.9512 0.2970
vn 0.3416 0.8756 0.3416
vn -0.0845 0.9512 0.2970
vn -0.2513 0.9347 0.2513
vn 0.2513 0.9347 0.2513
vn -0.4567 0.8749 0.1610
vn -0.3416 0.8756 0.3416
vn -0.8749 0.4567 0.1610
vn -1.0000 0.0000 0.0000
vn -0.9239 0.0000 0.3827
vn -0.8756 0.3416 0.3416
vn -0.7173 -0.6303 0.2971
vn 0.0000 -0.3827 0.9239
vn 0.0000 0.3827 0.9239
vn -0.3416 0.3416 0.8756
vn -0.3416 -0.3416 0.8756
vn 0.3416 -0.3416 0.8756
vn 0.3416 0.3416 0.8756
vn 0.0000 0.9239 0.3827
vn -0.8629 0.5054 0.0000
vn -0.8749 -0.4567 0.1610
vn -0.8756 -0.3416 0.3416
vn -0.4567 -0.8749 0.1610
vn 0.0000 -0.9239 0.3827
vn -0.3416 -0.8756 0.3416
vn 0.4567 -0.8749 0.1610
vn 0.3416 -0.8756 0.3416
vn 0.8749 -0.4567 0.1610
vn 0.8629 0.5054 -0.0000
vn 0.8756 -0.3416 0.3416
vn 0.5773 0.5774 0.5774
vn -0.5773 0.5774 0.5774
vn 0.5773 -0.5773 0.5774
vn -0.5773 -0.5773 0.5774
vn 0.7071 0.7071 -0.0000
vn -0.7071 0.7071 0.0000
# 58 vertex normals

vt 0.9206 0.3781 0.0000
vt 0.6704 0.3774 0.0000
vt 0.6704 0.3429 0.0000
vt 0.9206 0.3436 0.0000
vt 0.9380 0.8824 0.0000
vt 0.9380 0.9182 0.0000
vt 0.6796 0.9184 0.0000
vt 0.6796 0.8826 0.0000
vt 0.0508 0.3950 0.0000
vt 0.2980 0.3948 0.0000
vt 0.3090 0.4765 0.0000
vt 0.0509 0.4764 0.0000
vt 0.9366 0.5371 0.0000
vt 0.9327 0.5575 0.0000
vt 0.6775 0.5469 0.0000
vt 0.6686 0.5244 0.0000
vt 0.2980 0.3774 0.0000
vt 0.0486 0.3781 0.0000
vt 0.0486 0.3436 0.0000
vt 0.2980 0.3429 0.0000
vt 0.2919 0.9184 0.0000
vt 0.0345 0.9177 0.0000
vt 0.0345 0.8819 0.0000
vt 0.2920 0.8825 0.0000
vt 0.6703 0.3948 0.0000
vt 0.6594 0.4765 0.0000
vt 0.2957 0.5483 0.0000
vt 0.0414 0.5604 0.0000
vt 0.0375 0.5401 0.0000
vt 0.3045 0.5258 0.0000
vt 0.9184 0.3950 0.0000
vt 0.9183 0.4764 0.0000
vt 0.9208 0.3941 0.0000
vt 0.9362 0.3942 0.0000
vt 0.9365 0.4759 0.0000
vt 0.9211 0.4761 0.0000
vt 0.9558 0.5514 0.0000
vt 0.9410 0.5707 0.0000
vt 0.9330 0.5588 0.0000
vt 0.9420 0.5402 0.0000
vt 0.9362 0.5734 0.0000
vt 0.6783 0.5659 0.0000
vt 0.6783 0.5499 0.0000
vt 0.9324 0.5590 0.0000
vt 0.2950 0.5673 0.0000
vt 0.2949 0.5513 0.0000
vt 0.2972 0.5494 0.0000
vt 0.6760 0.5480 0.0000
vt 0.0381 0.5763 0.0000
vt 0.0418 0.5620 0.0000
vt 0.0333 0.5737 0.0000
vt 0.0183 0.5545 0.0000
vt 0.0320 0.5432 0.0000
vt 0.0412 0.5617 0.0000
vt 0.0327 0.4759 0.0000
vt 0.0329 0.3942 0.0000
vt 0.0484 0.3941 0.0000
vt 0.0481 0.4761 0.0000
vt 0.2919 0.8428 0.0000
vt 0.2919 0.8654 0.0000
vt 0.0345 0.8655 0.0000
vt 0.0345 0.8430 0.0000
vt 0.6795 0.8428 0.0000
vt 0.6795 0.8654 0.0000
vt 0.9376 0.8429 0.0000
vt 0.9376 0.8654 0.0000
vt 0.0345 0.8678 0.0000
vt 0.2920 0.8683 0.0000
vt 0.0174 0.8664 0.0000
vt 0.0173 0.8437 0.0000
vt 0.0316 0.8434 0.0000
vt 0.0317 0.8665 0.0000
vt 0.0345 0.8257 0.0000
vt 0.2920 0.8256 0.0000
vt 0.2920 0.8399 0.0000
vt 0.0345 0.8399 0.0000
vt 0.6796 0.8257 0.0000
vt 0.6796 0.8399 0.0000
vt 0.9380 0.8259 0.0000
vt 0.9381 0.8401 0.0000
vt 0.9546 0.8427 0.0000
vt 0.9546 0.8655 0.0000
vt 0.9403 0.8656 0.0000
vt 0.9404 0.8426 0.0000
vt 0.6796 0.8683 0.0000
vt 0.9381 0.8681 0.0000
vt 0.9398 0.5743 0.0000
vt 0.0344 0.5773 0.0000
vt 0.9506 0.8327 0.0000
vt 0.9486 0.8305 0.0000
vt 0.9515 0.8298 0.0000
vt 0.0147 0.8422 0.0000
vt 0.0173 0.8407 0.0000
vt 0.0327 0.8407 0.0000
vt 0.9409 0.8824 0.0000
vt 0.9409 0.9182 0.0000
vt 0.0315 0.9177 0.0000
vt 0.0316 0.8816 0.0000
vt 0.0346 0.8815 0.0000
vt 0.0315 0.8405 0.0000
vt 0.9507 0.8754 0.0000
vt 0.9487 0.8776 0.0000
# 102 texture coords

o Box025
g Box025
usemtl top
s 1
f 1/1/1 2/2/2 3/3/2 4/4/2 
f 5/5/3 6/6/3 7/7/4 8/8/4 
s 2
f 9/9/5 10/10/6 11/11/7 12/12/8 
f 13/13/9 14/14/10 15/15/11 16/16/7 
s 1
f 17/17/2 18/18/12 19/19/2 20/20/2 
f 21/21/4 22/22/13 23/23/13 24/24/4 
s 2
f 10/10/6 25/25/6 16/26/7 11/11/7 
f 26/27/14 27/28/15 12/29/8 11/30/7 
s 1
f 2/2/2 17/17/2 20/20/2 3/3/2 
f 7/7/4 21/21/4 24/24/4 8/8/4 
s 2
f 25/25/6 28/31/16 13/32/9 16/26/7 
s 1
f 2/2/2 1/1/1 29/33/17 28/31/16 25/25/6 
s 2
f 1/34/1 30/35/18 31/36/19 29/33/17 
f 30/37/18 32/38/20 33/39/21 31/40/19 
f 34/41/22 35/42/4 36/43/23 37/44/24 
f 35/42/4 38/45/4 39/46/25 40/47/26 41/48/27 36/43/23 
f 38/45/4 42/49/28 43/50/29 39/46/25 
f 44/51/30 45/52/31 46/53/32 47/54/33 
f 45/55/31 18/56/12 48/57/34 46/58/32 
s 1
f 18/18/12 17/17/2 10/10/6 9/9/5 48/57/34 
f 17/17/2 2/2/2 25/25/6 10/10/6 
f 49/59/35 50/60/36 51/61/37 52/62/38 
f 53/63/35 54/64/36 50/60/36 49/59/35 
f 55/65/39 56/66/40 54/64/36 53/63/35 
f 24/24/4 23/23/13 57/67/29 58/68/41 
s 2
f 59/69/42 60/70/43 61/71/44 62/72/33 
f 63/73/45 64/74/2 65/75/46 66/76/47 
f 64/74/2 67/77/2 68/78/46 65/75/46 
f 67/77/2 69/79/48 70/80/49 68/78/46 
f 71/81/50 72/82/51 73/83/21 74/84/52 
s 1
f 5/5/3 8/8/4 75/85/41 76/86/24 
f 8/8/4 24/24/4 58/68/41 75/85/41 
s 4
f 77/87/53 34/41/22 32/38/20 
f 78/88/54 44/51/30 42/49/28 
s 1
f 37/44/24 14/14/10 33/39/21 
s 4
f 36/43/23 41/48/27 15/15/11 
f 39/46/25 26/27/14 40/47/26 
s 1
f 47/54/33 27/28/15 43/50/29 
s 4
f 71/89/50 69/90/48 79/91/55 
f 60/70/43 80/92/56 63/93/45 
f 62/72/33 51/61/37 57/67/29 
f 66/94/47 52/62/38 61/71/44 
f 74/84/52 55/65/39 70/80/49 
f 76/86/24 56/66/40 73/83/21 
s 8
f 5/5/3 72/95/51 81/96/57 6/6/3 
f 22/22/13 82/97/58 59/98/42 23/23/13 
s 4
f 28/31/16 29/33/17 31/36/19 13/32/9 
f 13/13/9 31/40/19 33/39/21 14/14/10 
s 8
f 14/14/10 37/44/24 36/43/23 15/15/11 
f 26/27/14 39/46/25 43/50/29 27/28/15 
s 4
f 27/28/15 47/54/33 46/53/32 12/29/8 
f 12/12/8 46/58/32 48/57/34 9/9/5 
s 16
f 32/38/20 34/41/22 37/44/24 33/39/21 
f 42/49/28 44/51/30 47/54/33 43/50/29 
s 2
f 50/60/36 58/68/41 57/67/29 51/61/37 
s 16
f 51/61/37 62/72/33 61/71/44 52/62/38 
s 8
f 52/62/38 66/76/47 65/75/46 49/59/35 
f 49/59/35 65/75/46 68/78/46 53/63/35 
f 53/63/35 68/78/46 70/80/49 55/65/39 
s 16
f 55/65/39 74/84/52 73/83/21 56/66/40 
s 2
f 56/66/40 76/86/24 75/85/41 54/64/36 
f 54/64/36 75/85/41 58/68/41 50/60/36 
s 8
f 23/99/13 59/98/42 62/72/33 57/67/29 
s 32
f 60/70/43 63/93/45 66/100/47 61/71/44 
f 69/90/48 71/89/50 74/84/52 70/80/49 
s 8
f 72/101/51 5/102/3 76/86/24 73/83/21 
# 54 polygons - 12 triangles

#
# object adorno
#

v  52.0667 29.3040 14.8697
v  -52.3076 29.3040 14.8697
v  -49.7383 23.8789 13.5349
v  49.4974 23.8789 13.5349
v  -52.9706 29.3594 9.8927
v  -50.1025 23.3034 9.8927
v  -50.1025 23.3034 12.9593
v  -52.9706 29.3594 14.2942
v  49.8617 23.3034 9.8927
v  49.8617 23.3034 12.9593
v  52.7298 29.3594 9.8927
v  52.7298 29.3594 14.2942
v  52.4006 29.8796 9.8927
v  -52.6414 29.8796 9.8927
v  -52.6414 29.8796 14.2942
v  52.4006 29.8796 14.2942
# 16 vertices

vn 0.3375 0.1275 0.9326
vn -0.3375 0.1275 0.9326
vn -0.1883 -0.4829 0.8552
vn 0.1883 -0.4829 0.8552
vn -0.9981 0.0609 0.0000
vn -0.5348 -0.8450 0.0000
vn -0.4803 -0.8025 0.3539
vn -0.9196 0.0290 0.3919
vn 0.5348 -0.8450 -0.0000
vn 0.4803 -0.8025 0.3539
vn 0.9981 0.0609 -0.0000
vn 0.9196 0.0290 0.3919
vn 0.4823 0.8760 -0.0000
vn -0.4823 0.8760 0.0000
vn -0.4484 0.8118 0.3739
vn 0.4484 0.8118 0.3739
# 16 vertex normals

vt 0.9537 0.0876 0.0000
vt 0.0463 0.0876 0.0000
vt 0.0681 0.0406 0.0000
vt 0.9319 0.0406 0.0000
vt 0.0200 0.0891 0.0000
vt 0.0551 0.0200 0.0000
vt 0.0659 0.0368 0.0000
vt 0.0506 0.0877 0.0000
vt 0.9449 0.0200 0.0000
vt 0.9341 0.0368 0.0000
vt 0.9800 0.0891 0.0000
vt 0.9494 0.0877 0.0000
vt 0.9679 0.1109 0.0000
vt 0.0321 0.1109 0.0000
vt 0.0466 0.0838 0.0000
vt 0.9534 0.0838 0.0000
# 16 texture coords

o adorno
g adorno
usemtl adorno
s 1
f 83/103/59 84/104/60 85/105/61 86/106/62 
f 87/107/63 88/108/64 89/109/65 90/110/66 
s 4
f 88/108/64 91/111/67 92/112/68 89/109/65 
s 1
f 91/111/67 93/113/69 94/114/70 92/112/68 
s 2
f 95/115/71 96/116/72 97/117/73 98/118/74 
s 4
f 90/110/66 84/104/60 97/117/73 
f 98/118/74 83/103/59 94/114/70 
s 2
f 84/104/60 90/110/66 89/109/65 85/105/61 
s 8
f 85/105/61 89/109/65 92/112/68 86/106/62 
s 2
f 86/106/62 92/112/68 94/114/70 83/103/59 
s 8
f 83/103/59 98/118/74 97/117/73 84/104/60 
s 16
f 96/116/72 87/107/63 90/110/66 97/117/73 
f 93/113/69 95/115/71 98/118/74 94/114/70 
# 11 polygons - 2 triangles

#
# object wall
#

v  124.3288 0.0000 4.9156
v  124.3288 0.0000 -4.9156
v  124.3288 23.3034 -4.9156
v  124.3288 23.3034 4.9156
v  124.3288 29.8796 4.3400
v  124.3288 29.8796 -4.9156
v  124.3288 115.5684 -4.9156
v  124.3288 115.5684 4.3400
v  -124.3288 0.0000 -4.9156
v  -124.3288 0.0000 4.9156
v  -124.3288 23.3034 4.9156
v  -124.3288 23.3034 -4.9156
v  -124.3288 29.8796 -4.9156
v  -124.3288 29.8796 4.3401
v  -124.3288 115.5684 4.3401
v  -124.3288 115.5684 -4.9156
v  -123.7533 29.8796 4.9156
v  -53.2170 29.8796 4.9156
v  -53.2170 115.5684 4.9156
v  -123.7533 115.5684 4.9156
v  124.3288 29.3040 4.9156
v  -124.3288 29.3040 4.9156
v  52.9761 29.8796 4.9156
v  52.9761 115.5684 4.9156
v  123.7533 29.8796 4.9156
v  123.7533 115.5684 4.9156
v  124.3288 122.3718 -4.9156
v  124.3288 122.3718 4.9156
v  124.3288 116.1439 4.9156
v  -124.3288 116.1439 4.9156
v  -124.3288 122.3718 4.9156
v  -124.3288 122.3718 -4.9156
# 32 vertices

vn 1.0000 0.0000 -0.0000
vn 0.9765 0.0000 0.2153
vn -1.0000 0.0000 0.0000
vn -0.9765 0.0000 0.2153
vn -0.3827 0.0000 0.9239
vn 0.0000 0.0000 1.0000
vn 0.3827 0.0000 0.9239
# 7 vertex normals

vt 0.0696 0.3602 0.0000
vt 0.1074 0.3602 0.0000
vt 0.1074 0.4497 0.0000
vt 0.0696 0.4497 0.0000
vt 0.0718 0.4750 0.0000
vt 0.1074 0.4750 0.0000
vt 0.1074 0.8042 0.0000
vt 0.0718 0.8042 0.0000
vt 0.0200 0.3602 0.0000
vt 0.0578 0.3602 0.0000
vt 0.0578 0.4497 0.0000
vt 0.0200 0.4497 0.0000
vt 0.0200 0.4750 0.0000
vt 0.0555 0.4750 0.0000
vt 0.0555 0.8042 0.0000
vt 0.0200 0.8042 0.0000
vt 0.0246 0.0196 0.0000
vt 0.2956 0.0196 0.0000
vt 0.2956 0.3488 0.0000
vt 0.0246 0.3488 0.0000
vt 0.0696 0.4728 0.0000
vt 0.0578 0.4728 0.0000
vt 0.7035 0.0196 0.0000
vt 0.7035 0.3488 0.0000
vt 0.9754 0.0196 0.0000
vt 0.9754 0.3488 0.0000
vt 0.1074 0.8303 0.0000
vt 0.0696 0.8303 0.0000
vt 0.0696 0.8064 0.0000
vt 0.0578 0.8064 0.0000
vt 0.0578 0.8303 0.0000
vt 0.0200 0.8303 0.0000
vt 0.0215 0.0196 0.0000
vt 0.0215 0.3488 0.0000
vt 0.9785 0.3488 0.0000
vt 0.9785 0.0196 0.0000
# 36 texture coords

o wall
g wall
usemtl wall
s 2
f 99/119/75 100/120/75 101/121/75 102/122/75 
f 103/123/76 104/124/75 105/125/75 106/126/76 
f 107/127/77 108/128/77 109/129/77 110/130/77 
f 111/131/77 112/132/78 113/133/78 114/134/77 
s 1
f 115/135/79 116/136/80 117/137/80 118/138/79 
s 2
f 101/121/75 104/124/75 103/123/76 119/139/75 102/122/75 
f 109/129/77 120/140/77 112/132/78 111/131/77 110/130/77 
s 1
f 116/136/80 121/141/80 122/142/80 117/137/80 
f 121/141/80 123/143/81 124/144/81 122/142/80 
s 2
f 105/125/75 125/145/75 126/146/75 127/147/75 106/126/76 
f 113/133/78 128/148/77 129/149/77 130/150/77 114/134/77 
s 8
f 112/151/78 115/135/79 118/138/79 113/152/78 
f 106/153/76 124/144/81 123/143/81 103/154/76 
# 13 polygons

