# 3ds Max Wavefront OBJ Exporter v0.97b - (c)2007 guruware
# File Created: 30.12.2018 19:36:49

mtllib PuertaMov.mtl

#
# object Box019
#

v  -10.0334 247.7703 51.9780
v  10.0334 247.7703 51.9780
v  10.0334 247.7703 0.5112
v  -10.0334 247.7703 0.5112
v  -10.0334 0.0000 66.0996
v  10.0334 0.0000 66.0996
v  10.0334 56.5784 66.0996
v  -10.0334 56.5784 66.0996
v  -10.0334 211.5287 66.0996
v  10.0334 211.5287 66.0996
v  10.0334 0.0000 0.6501
v  10.0334 56.5784 0.6501
v  10.0334 211.5287 0.6501
v  10.0334 0.0000 -66.0996
v  -10.0334 0.0000 -66.0996
v  -10.0334 56.5784 -66.0996
v  10.0334 56.5784 -66.0996
v  10.0334 211.5287 -66.0996
v  -10.0334 211.5287 -66.0996
v  -10.0334 247.7703 -51.9780
v  10.0334 247.7703 -51.9780
v  -10.0334 0.0000 0.6501
v  -10.0334 56.5784 0.6501
v  -10.0334 211.5287 0.6501
v  10.0334 145.7559 66.0996
v  -10.0334 145.7559 66.0996
v  10.0334 145.7559 -66.0996
v  10.0334 145.7559 0.6501
v  -10.0334 145.7559 -66.0996
v  -10.0334 145.7559 0.6501
# 30 vertices

vn -0.5911 0.6346 0.4979
vn 0.5911 0.6346 0.4979
vn 0.7071 0.7071 0.0000
vn -0.7071 0.7071 -0.0000
vn -0.7071 0.0000 0.7071
vn 0.7071 0.0000 0.7071
vn -0.6811 0.0877 0.7269
vn 0.6811 0.0877 0.7269
vn 1.0000 0.0000 -0.0000
vn 0.7071 0.0000 -0.7071
vn -0.7071 0.0000 -0.7071
vn 0.6811 0.0877 -0.7269
vn -0.6811 0.0877 -0.7269
vn -0.5911 0.6346 -0.4979
vn 0.5911 0.6346 -0.4979
vn -1.0000 0.0000 -0.0000
vn 0.7071 -0.0000 0.7071
vn 0.7071 -0.0000 -0.7071
vn -0.7071 -0.0000 -0.7071
# 19 vertex normals

vt 0.9800 0.2578 0.0000
vt 0.9024 0.2578 0.0000
vt 0.9024 0.1401 0.0000
vt 0.9800 0.1401 0.0000
vt 0.8754 0.9256 0.0000
vt 0.7978 0.9256 0.0000
vt 0.7978 0.7197 0.0000
vt 0.8754 0.7197 0.0000
vt 0.8754 0.1558 0.0000
vt 0.7978 0.1558 0.0000
vt 0.7978 0.0200 0.0000
vt 0.8754 0.0200 0.0000
vt 0.6664 0.9211 0.0000
vt 0.5167 0.9234 0.0000
vt 0.5135 0.7175 0.0000
vt 0.6632 0.7152 0.0000
vt 0.6544 0.1514 0.0000
vt 0.5047 0.1537 0.0000
vt 0.5023 0.0218 0.0000
vt 0.6201 0.0200 0.0000
vt 0.7708 0.9256 0.0000
vt 0.6932 0.9256 0.0000
vt 0.6932 0.7197 0.0000
vt 0.7708 0.7197 0.0000
vt 0.7708 0.1558 0.0000
vt 0.6932 0.1558 0.0000
vt 0.6932 0.0200 0.0000
vt 0.7708 0.0200 0.0000
vt 0.0476 0.0200 0.0000
vt 0.2002 0.0255 0.0000
vt 0.1928 0.2312 0.0000
vt 0.0402 0.2258 0.0000
vt 0.0200 0.7893 0.0000
vt 0.1726 0.7948 0.0000
vt 0.1676 0.9266 0.0000
vt 0.0476 0.9223 0.0000
vt 0.7978 0.3952 0.0000
vt 0.8754 0.3952 0.0000
vt 0.3558 0.3954 0.0000
vt 0.3520 0.1561 0.0000
vt 0.5084 0.3930 0.0000
vt 0.6932 0.3952 0.0000
vt 0.7708 0.3952 0.0000
vt 0.3308 0.5609 0.0000
vt 0.3222 0.8001 0.0000
vt 0.1812 0.5556 0.0000
vt 0.3608 0.7199 0.0000
vt 0.3424 0.2366 0.0000
vt 0.9024 0.0200 0.0000
vt 0.9800 0.0200 0.0000
vt 0.3640 0.9258 0.0000
vt 0.3823 0.0237 0.0000
vt 0.3498 0.0308 0.0000
vt 0.2852 0.9308 0.0000
vt 0.6581 0.3907 0.0000
vt 0.0286 0.5501 0.0000
# 56 texture coords

o Box019
g Box019
usemtl wire_177088027
s 4
f 1/1/1 2/2/2 3/3/3 4/4/4 
s 8
f 5/5/5 6/6/6 7/7/6 8/8/5 
f 9/9/7 10/10/8 2/11/2 1/12/1 
s 16
f 6/13/6 11/14/9 12/15/9 7/16/6 
f 10/17/8 13/18/9 3/19/3 2/20/2 
s 32
f 14/21/10 15/22/11 16/23/11 17/24/10 
f 18/25/12 19/26/13 20/27/14 21/28/15 
s 64
f 15/29/11 22/30/16 23/31/16 16/32/11 
f 19/33/13 24/34/16 4/35/4 20/36/14 
s 8
f 25/37/17 10/10/8 9/9/7 26/38/5 
s 16
f 27/39/18 18/40/12 13/18/9 28/41/9 
s 32
f 29/42/19 19/26/13 18/25/12 27/43/18 
s 64
f 26/44/5 9/45/7 24/34/16 30/46/16 
s 8
f 7/7/6 25/37/17 26/38/5 8/8/5 
s 16
f 17/47/10 27/39/18 28/41/9 12/15/9 
s 32
f 16/23/11 29/42/19 27/43/18 17/24/10 
s 64
f 8/48/5 26/44/5 30/46/16 23/31/16 
s 4
f 3/3/3 21/49/15 20/50/14 4/4/4 
s 16
f 11/14/9 14/51/10 17/47/10 12/15/9 
f 13/18/9 18/40/12 21/52/15 3/19/3 
s 64
f 22/30/16 5/53/5 8/48/5 23/31/16 
f 24/34/16 9/45/7 1/54/1 4/35/4 
s 16
f 13/18/9 10/17/8 25/55/17 28/41/9 
s 64
f 24/34/16 19/33/13 29/56/19 30/46/16 
s 16
f 28/41/9 25/55/17 7/16/6 12/15/9 
s 64
f 30/46/16 29/56/19 16/32/11 23/31/16 
# 26 polygons

