# 3ds Max Wavefront OBJ Exporter v0.97b - (c)2007 guruware
# File Created: 31.12.2018 17:18:35

mtllib columnaBig.mtl

#
# object Box017
#

v  -22.2753 205.3917 18.6722
v  -21.3806 205.3917 19.5669
v  21.3806 205.3917 19.5669
v  22.2753 205.3917 18.6722
v  22.2753 205.3917 -18.6722
v  21.3806 205.3917 -19.5669
v  -21.3806 205.3917 -19.5669
v  -22.2753 205.3917 -18.6722
v  -14.7098 71.4244 14.1997
v  14.7098 71.4244 14.1997
v  16.4486 86.4530 15.8783
v  -16.4486 86.4530 15.8783
v  -11.1546 86.4530 10.5843
v  11.1546 86.4530 10.5843
v  16.8650 90.2708 15.6004
v  -16.8650 90.2708 15.6004
v  11.1546 104.8105 10.5843
v  -11.1546 104.8105 10.5843
v  15.5099 71.4244 13.3996
v  15.5099 71.4244 -13.3996
v  17.3433 86.4530 -14.9836
v  17.3433 86.4530 14.9836
v  12.0493 86.4530 9.6896
v  12.0493 86.4530 -9.6896
v  17.7597 90.2708 -14.7057
v  17.7597 90.2708 14.7057
v  12.0493 104.8105 -9.6896
v  12.0493 104.8105 9.6896
v  14.7098 71.4244 -14.1997
v  -14.7098 71.4244 -14.1997
v  -16.4486 86.4530 -15.8783
v  16.4486 86.4530 -15.8783
v  11.1546 86.4530 -10.5843
v  -11.1546 86.4530 -10.5843
v  -16.8650 90.2708 -15.6004
v  16.8650 90.2708 -15.6004
v  -11.1546 104.8105 -10.5843
v  11.1546 104.8105 -10.5843
v  -15.5099 71.4244 -13.3996
v  -15.5099 71.4244 13.3996
v  -17.3433 86.4530 14.9836
v  -17.3433 86.4530 -14.9836
v  -12.0493 86.4530 -9.6896
v  -12.0493 86.4530 9.6896
v  -17.7597 90.2708 14.7057
v  -17.7597 90.2708 -14.7057
v  -12.0493 104.8105 9.6896
v  -12.0493 104.8105 -9.6896
v  11.1546 71.4243 10.5843
v  -11.1546 71.4243 10.5843
v  -10.3361 71.4243 9.7658
v  10.3361 71.4243 9.7658
v  -12.0493 71.4243 9.6896
v  -12.0493 71.4243 -9.6896
v  -11.2308 71.4243 -8.8711
v  -11.2308 71.4243 8.8711
v  -11.1546 71.4243 -10.5843
v  11.1546 71.4243 -10.5843
v  10.3361 71.4243 -9.7658
v  -10.3361 71.4243 -9.7658
v  12.0493 71.4243 -9.6896
v  12.0493 71.4243 9.6896
v  11.2308 71.4243 8.8711
v  11.2308 71.4243 -8.8711
v  17.7789 188.2936 16.4031
v  21.0283 196.7513 19.2575
v  -21.0283 196.7513 19.2575
v  -17.7789 188.2936 16.4031
v  18.6735 188.2936 -15.5084
v  21.9230 196.7513 -18.3628
v  21.9230 196.7513 18.3628
v  18.6735 188.2936 15.5084
v  -17.7789 188.2936 -16.4031
v  -21.0283 196.7513 -19.2575
v  21.0283 196.7513 -19.2575
v  17.7789 188.2936 -16.4031
v  -18.6735 188.2936 15.5084
v  -21.9230 196.7513 18.3628
v  -21.9230 196.7513 -18.3628
v  -18.6735 188.2936 -15.5084
v  24.7818 196.5448 24.2940
v  25.3635 206.1168 24.6367
v  -25.3635 206.1168 24.6367
v  -24.8037 196.4443 24.3526
v  27.3051 196.2873 -21.7759
v  27.6989 205.9477 -22.2591
v  27.6989 205.9477 22.2591
v  27.3466 196.2113 21.7918
v  -24.7818 196.5448 -24.2940
v  -25.3635 206.1168 -24.6367
v  25.3635 206.1168 -24.6367
v  24.8037 196.4443 -24.3526
v  -27.3051 196.2873 21.7759
v  -27.6989 205.9476 22.2591
v  -27.6989 205.9477 -22.2591
v  -27.3466 196.2113 -21.7918
v  -13.3769 188.2936 12.8066
v  13.3769 188.2936 12.8066
v  -14.2716 188.2936 -11.9119
v  -14.2716 188.2936 11.9119
v  13.3769 188.2936 -12.8066
v  -13.3769 188.2936 -12.8066
v  14.2716 188.2936 11.9119
v  14.2716 188.2936 -11.9119
# 104 vertices

vn 0.0091 1.0000 -0.0030
vn 0.0037 0.9999 -0.0125
vn -0.0037 0.9999 -0.0125
vn -0.0091 1.0000 -0.0030
vn -0.0091 1.0000 0.0030
vn -0.0037 0.9999 0.0125
vn 0.0037 0.9999 0.0125
vn 0.0091 1.0000 0.0030
vn -0.1526 -0.8618 0.4838
vn 0.1526 -0.8618 0.4838
vn 0.4055 0.3476 0.8454
vn -0.4055 0.3476 0.8454
vn -0.2204 0.0722 0.9727
vn 0.2204 0.0722 0.9727
vn 0.4530 -0.1017 0.8857
vn -0.4530 -0.1017 0.8857
vn 0.0875 0.9273 0.3639
vn -0.0875 0.9273 0.3639
vn 0.4685 -0.8694 0.1572
vn 0.4685 -0.8694 -0.1572
vn 0.8521 0.3419 -0.3963
vn 0.8521 0.3419 0.3963
vn 0.9619 0.0647 0.2656
vn 0.9619 0.0647 -0.2656
vn 0.8960 -0.0986 -0.4329
vn 0.8960 -0.0986 0.4329
vn 0.3296 0.9394 -0.0943
vn 0.3296 0.9394 0.0943
vn 0.1526 -0.8618 -0.4838
vn -0.1526 -0.8618 -0.4838
vn -0.4055 0.3476 -0.8454
vn 0.4055 0.3476 -0.8454
vn 0.2204 0.0722 -0.9727
vn -0.2204 0.0722 -0.9727
vn -0.4530 -0.1017 -0.8857
vn 0.4530 -0.1017 -0.8857
vn -0.0875 0.9273 -0.3639
vn 0.0875 0.9273 -0.3639
vn -0.4685 -0.8694 -0.1572
vn -0.4685 -0.8694 0.1572
vn -0.8521 0.3419 0.3963
vn -0.8521 0.3419 -0.3963
vn -0.9619 0.0647 -0.2656
vn -0.9619 0.0647 0.2656
vn -0.8960 -0.0986 0.4329
vn -0.8960 -0.0986 -0.4329
vn -0.3296 0.9394 0.0943
vn -0.3296 0.9394 -0.0943
vn 0.0000 -1.0000 0.0000
vn -0.0000 -1.0000 0.0000
vn 0.0000 -1.0000 -0.0000
vn -0.0000 -1.0000 -0.0000
vn 0.0563 -0.9707 0.2335
vn 0.0583 -0.9919 0.1128
vn -0.0578 -0.9921 0.1111
vn -0.0563 -0.9707 0.2335
vn 0.2113 -0.9755 -0.0606
vn 0.1062 -0.9930 -0.0523
vn 0.1050 -0.9931 0.0519
vn 0.2113 -0.9755 0.0606
vn -0.0563 -0.9707 -0.2335
vn -0.0583 -0.9919 -0.1128
vn 0.0578 -0.9921 -0.1111
vn 0.0563 -0.9707 -0.2335
vn -0.2113 -0.9755 0.0606
vn -0.1062 -0.9930 0.0523
vn -0.1050 -0.9931 -0.0519
vn -0.2113 -0.9755 -0.0606
vn 0.2099 -0.7390 0.6402
vn 0.3734 0.5120 0.7736
vn -0.3704 0.5263 0.7654
vn -0.2240 -0.7265 0.6496
vn 0.6255 -0.7475 -0.2237
vn 0.7846 0.5096 -0.3531
vn 0.7788 0.5200 0.3508
vn 0.6313 -0.7384 0.2371
vn -0.2099 -0.7390 -0.6402
vn -0.3734 0.5120 -0.7736
vn 0.3704 0.5263 -0.7654
vn 0.2240 -0.7265 -0.6496
vn -0.6255 -0.7475 0.2237
vn -0.7846 0.5096 0.3531
vn -0.7788 0.5200 -0.3508
vn -0.6313 -0.7384 -0.2371
# 84 vertex normals

vt 0.6309 0.0270 0.0000
vt 0.6379 0.0200 0.0000
vt 0.9730 0.0200 0.0000
vt 0.9800 0.0270 0.0000
vt 0.9800 0.3197 0.0000
vt 0.9730 0.3267 0.0000
vt 0.6379 0.3267 0.0000
vt 0.6309 0.3197 0.0000
vt 0.0772 0.5387 0.0000
vt 0.0770 0.3262 0.0000
vt 0.1795 0.3180 0.0000
vt 0.1797 0.5557 0.0000
vt 0.2179 0.5174 0.0000
vt 0.2177 0.3562 0.0000
vt 0.2543 0.3149 0.0000
vt 0.2545 0.5586 0.0000
vt 0.3565 0.3562 0.0000
vt 0.3566 0.5173 0.0000
vt 0.5809 0.3093 0.0000
vt 0.4058 0.3046 0.0000
vt 0.4005 0.1992 0.0000
vt 0.5963 0.2045 0.0000
vt 0.5627 0.1690 0.0000
vt 0.4361 0.1655 0.0000
vt 0.4043 0.1271 0.0000
vt 0.5965 0.1323 0.0000
vt 0.4428 0.0220 0.0000
vt 0.5695 0.0254 0.0000
vt 0.6619 0.3887 0.0000
vt 0.6566 0.5867 0.0000
vt 0.5554 0.6042 0.0000
vt 0.5614 0.3829 0.0000
vt 0.5248 0.4175 0.0000
vt 0.5208 0.5676 0.0000
vt 0.4857 0.6052 0.0000
vt 0.4918 0.3782 0.0000
vt 0.3871 0.5636 0.0000
vt 0.3911 0.4135 0.0000
vt 0.6750 0.9457 0.0000
vt 0.6775 0.7780 0.0000
vt 0.7778 0.7674 0.0000
vt 0.7750 0.9549 0.0000
vt 0.8087 0.9223 0.0000
vt 0.8105 0.8010 0.0000
vt 0.8469 0.7702 0.0000
vt 0.8442 0.9542 0.0000
vt 0.9391 0.8012 0.0000
vt 0.9372 0.9224 0.0000
vt 0.0509 0.3519 0.0000
vt 0.0510 0.5131 0.0000
vt 0.0451 0.5072 0.0000
vt 0.0450 0.3578 0.0000
vt 0.6555 0.8009 0.0000
vt 0.6536 0.9222 0.0000
vt 0.6486 0.9170 0.0000
vt 0.6503 0.8059 0.0000
vt 0.6816 0.5634 0.0000
vt 0.6856 0.4133 0.0000
vt 0.6909 0.4189 0.0000
vt 0.6872 0.5580 0.0000
vt 0.4294 0.3279 0.0000
vt 0.5560 0.3313 0.0000
vt 0.5505 0.3365 0.0000
vt 0.4346 0.3334 0.0000
vt 0.0775 0.2653 0.0000
vt 0.0517 0.1808 0.0000
vt 0.3602 0.1812 0.0000
vt 0.3383 0.2656 0.0000
vt 0.5770 0.9175 0.0000
vt 0.4958 0.9378 0.0000
vt 0.4946 0.6848 0.0000
vt 0.5759 0.7045 0.0000
vt 0.2720 0.9095 0.0000
vt 0.1915 0.9321 0.0000
vt 0.1978 0.6386 0.0000
vt 0.2772 0.6619 0.0000
vt 0.7537 0.4254 0.0000
vt 0.8312 0.4042 0.0000
vt 0.8304 0.6481 0.0000
vt 0.7528 0.6302 0.0000
vt 0.0243 0.0696 0.0000
vt 0.0200 0.0572 0.0000
vt 0.3921 0.0572 0.0000
vt 0.3880 0.0696 0.0000
vt 0.4587 0.9626 0.0000
vt 0.3769 0.9638 0.0000
vt 0.3812 0.6596 0.0000
vt 0.4581 0.6644 0.0000
vt 0.1556 0.9588 0.0000
vt 0.0730 0.9604 0.0000
vt 0.0856 0.6090 0.0000
vt 0.1635 0.6146 0.0000
vt 0.8658 0.3835 0.0000
vt 0.9398 0.3810 0.0000
vt 0.9390 0.6715 0.0000
vt 0.8651 0.6690 0.0000
vt 0.3060 0.2920 0.0000
vt 0.1098 0.2917 0.0000
vt 0.7239 0.6061 0.0000
vt 0.7246 0.4491 0.0000
vt 0.3016 0.6932 0.0000
vt 0.2976 0.8793 0.0000
vt 0.6062 0.7291 0.0000
vt 0.6071 0.8926 0.0000
vt 0.5872 0.3131 0.0000
vt 0.6034 0.2087 0.0000
vt 0.7741 0.7604 0.0000
vt 0.6741 0.7718 0.0000
vt 0.5684 0.1749 0.0000
vt 0.6022 0.1383 0.0000
vt 0.8414 0.7645 0.0000
vt 0.8050 0.7953 0.0000
vt 0.6027 0.1269 0.0000
vt 0.5757 0.0200 0.0000
vt 0.9445 0.7954 0.0000
vt 0.8523 0.7644 0.0000
vt 0.9441 0.3625 0.0000
vt 0.8578 0.3633 0.0000
vt 0.6657 0.3821 0.0000
vt 0.5657 0.3755 0.0000
vt 0.5310 0.4116 0.0000
vt 0.4979 0.3723 0.0000
vt 0.4863 0.3717 0.0000
vt 0.3856 0.4070 0.0000
vt 0.6714 0.9518 0.0000
vt 0.7711 0.9618 0.0000
vt 0.8030 0.9278 0.0000
vt 0.8385 0.9597 0.0000
vt 0.8494 0.9601 0.0000
vt 0.9425 0.9283 0.0000
vt 0.0444 0.3454 0.0000
vt 0.0385 0.3514 0.0000
vt 0.6499 0.7952 0.0000
vt 0.6447 0.8003 0.0000
vt 0.6874 0.5696 0.0000
vt 0.6931 0.5642 0.0000
vt 0.4234 0.3336 0.0000
vt 0.4286 0.3390 0.0000
vt 0.0446 0.5195 0.0000
vt 0.0714 0.5445 0.0000
vt 0.5617 0.3373 0.0000
vt 0.5860 0.3147 0.0000
vt 0.6918 0.4074 0.0000
vt 0.6674 0.3835 0.0000
vt 0.6480 0.9277 0.0000
vt 0.6699 0.9506 0.0000
vt 0.2242 0.3498 0.0000
vt 0.1859 0.3115 0.0000
vt 0.8162 0.7955 0.0000
vt 0.7835 0.7619 0.0000
vt 0.5146 0.5735 0.0000
vt 0.5493 0.6101 0.0000
vt 0.4304 0.1595 0.0000
vt 0.3948 0.1932 0.0000
vt 0.5816 0.6978 0.0000
vt 0.5001 0.6772 0.0000
vt 0.2832 0.6552 0.0000
vt 0.2035 0.6311 0.0000
vt 0.7472 0.6367 0.0000
vt 0.8250 0.6552 0.0000
vt 0.8258 0.3971 0.0000
vt 0.7479 0.4193 0.0000
vt 0.4662 0.6434 0.0000
vt 0.3766 0.6401 0.0000
vt 0.1721 0.5934 0.0000
vt 0.0813 0.5892 0.0000
vt 0.8568 0.6889 0.0000
vt 0.9432 0.6901 0.0000
vt 0.0709 0.2718 0.0000
vt 0.1032 0.2982 0.0000
vt 0.7188 0.4431 0.0000
vt 0.2781 0.9158 0.0000
vt 0.3037 0.8857 0.0000
vt 0.5832 0.9236 0.0000
vt 0.6132 0.8987 0.0000
vt 0.0492 0.0200 0.0000
vt 0.3629 0.0200 0.0000
vt 0.9797 0.3924 0.0000
vt 0.9750 0.4013 0.0000
vt 0.9744 0.6514 0.0000
vt 0.9790 0.6603 0.0000
vt 0.0385 0.9311 0.0000
vt 0.0497 0.6318 0.0000
vt 0.0449 0.6224 0.0000
vt 0.3398 0.9382 0.0000
vt 0.3441 0.6800 0.0000
vt 0.3393 0.6708 0.0000
# 187 texture coords

o Box017
g Box017
usemtl Material__2
s 1
f 1/1/1 2/2/2 3/3/3 4/4/4 5/5/5 6/6/6 7/7/7 8/8/8 
f 9/9/9 10/10/10 11/11/11 12/12/12 
f 13/13/13 14/14/14 15/15/15 16/16/16 
s 2
f 16/16/16 15/15/15 17/17/17 18/18/18 
s 1
f 19/19/19 20/20/20 21/21/21 22/22/22 
f 23/23/23 24/24/24 25/25/25 26/26/26 
s 2
f 26/26/26 25/25/25 27/27/27 28/28/28 
s 1
f 29/29/29 30/30/30 31/31/31 32/32/32 
f 33/33/33 34/34/34 35/35/35 36/36/36 
s 2
f 36/36/36 35/35/35 37/37/37 38/38/38 
s 1
f 39/39/39 40/40/40 41/41/41 42/42/42 
f 43/43/43 44/44/44 45/45/45 46/46/46 
s 2
f 46/46/46 45/45/45 47/47/47 48/48/48 
f 49/49/49 50/50/50 51/51/51 52/52/51 
f 53/53/50 54/54/52 55/55/51 56/56/51 
f 57/57/52 58/58/51 59/59/51 60/60/51 
f 61/61/51 62/62/49 63/63/51 64/64/51 
f 50/50/50 49/49/49 10/10/10 9/9/9 
f 62/62/49 61/61/51 20/20/20 19/19/19 
f 58/58/51 57/57/52 30/30/30 29/29/29 
f 54/54/52 53/53/50 40/40/40 39/39/39 
f 14/14/14 13/13/13 12/12/12 11/11/11 
f 44/44/44 43/43/43 42/42/42 41/41/41 
f 34/34/34 33/33/33 32/32/32 31/31/31 
f 24/24/24 23/23/23 22/22/22 21/21/21 
f 65/65/53 66/66/54 67/67/55 68/68/56 
f 69/69/57 70/70/58 71/71/59 72/72/60 
f 73/73/61 74/74/62 75/75/63 76/76/64 
f 77/77/65 78/78/66 79/79/67 80/80/68 
s 4
f 81/81/69 82/82/70 83/83/71 84/84/72 
f 85/85/73 86/86/74 87/87/75 88/88/76 
f 89/89/77 90/90/78 91/91/79 92/92/80 
f 93/93/81 94/94/82 95/95/83 96/96/84 
s 2
f 65/65/53 68/68/56 97/97/52 98/98/49 
f 77/77/65 80/80/68 99/99/52 100/100/49 
f 73/73/61 76/76/64 101/101/51 102/102/52 
f 69/69/57 72/72/60 103/103/49 104/104/51 
s 4
f 10/105/10 19/19/19 22/22/22 11/106/11 
f 12/107/12 41/41/41 40/40/40 9/108/9 
s 1
f 14/109/14 23/23/23 26/26/26 15/110/15 
f 16/111/16 45/45/45 44/44/44 13/112/13 
s 2
f 15/113/15 26/26/26 28/28/28 17/114/17 
f 18/115/18 47/47/47 45/45/45 16/116/16 
s 8
f 83/117/71 94/94/82 93/93/81 84/118/72 
s 4
f 20/119/20 29/29/29 32/32/32 21/120/21 
s 1
f 24/121/24 33/33/33 36/36/36 25/122/25 
s 2
f 25/123/25 36/36/36 38/38/38 27/124/27 
s 4
f 30/125/30 39/39/39 42/42/42 31/126/31 
s 1
f 34/127/34 43/43/43 46/46/46 35/128/35 
s 2
f 35/129/35 46/46/46 48/48/48 37/130/37 
f 62/131/49 49/49/49 52/52/51 63/132/51 
f 50/133/50 53/53/50 56/56/51 51/134/51 
f 54/135/52 57/57/52 60/60/51 55/136/51 
f 58/137/51 61/61/51 64/64/51 59/138/51 
f 53/139/50 50/50/50 9/9/9 40/140/40 
f 49/141/49 62/62/49 19/19/19 10/142/10 
f 61/143/51 58/58/51 29/29/29 20/144/20 
f 57/145/52 54/54/52 39/39/39 30/146/30 
f 23/147/23 14/14/14 11/11/11 22/148/22 
f 13/149/13 44/44/44 41/41/41 12/150/12 
f 43/151/43 34/34/34 31/31/31 42/152/42 
f 33/153/33 24/24/24 21/21/21 32/154/32 
f 65/155/53 72/72/60 71/71/59 66/156/54 
f 69/157/57 76/76/64 75/75/63 70/158/58 
f 73/159/61 80/80/68 79/79/67 74/160/62 
f 67/161/55 78/78/66 77/77/65 68/162/56 
s 8
f 81/163/69 88/88/76 87/87/75 82/164/70 
f 85/165/73 92/92/80 91/91/79 86/166/74 
f 89/167/77 96/96/84 95/95/83 90/168/78 
s 2
f 72/169/60 65/65/53 98/98/49 103/170/49 
f 68/162/56 77/77/65 100/100/49 97/171/52 
f 80/172/68 73/73/61 102/102/52 99/173/52 
f 76/174/64 69/69/57 104/104/51 101/175/51 
s off
f 3/176/3 2/177/2 83/83/71 82/82/70 
f 2/178/2 1/179/1 94/94/82 83/117/71 
f 1/179/1 8/180/8 95/95/83 94/94/82 
f 8/180/8 7/181/7 90/168/78 95/95/83 
f 7/182/7 6/183/6 91/91/79 90/90/78 
f 6/183/6 5/184/5 86/166/74 91/91/79 
f 5/185/5 4/186/4 87/87/75 86/86/74 
f 4/186/4 3/187/3 82/164/70 87/87/75 
f 67/67/55 66/66/54 81/81/69 84/84/72 
f 66/156/54 71/71/59 88/88/76 81/163/69 
f 71/71/59 70/70/58 85/85/73 88/88/76 
f 70/158/58 75/75/63 92/92/80 85/165/73 
f 75/75/63 74/74/62 89/89/77 92/92/80 
f 74/160/62 79/79/67 96/96/84 89/167/77 
f 79/79/67 78/78/66 93/93/81 96/96/84 
f 78/78/66 67/161/55 84/118/72 93/93/81 
# 89 polygons

#
# object stone
#

v  -14.1197 0.5007 13.0559
v  14.1197 0.5007 13.0559
v  14.1197 8.0417 13.0559
v  -14.1197 8.0417 13.0559
v  -17.2513 8.0417 15.9397
v  17.2513 8.0417 15.9397
v  13.9946 68.2795 12.9306
v  -13.9946 68.2795 12.9306
v  -10.3361 68.2795 9.7658
v  10.3361 68.2795 9.7658
v  10.3361 71.4243 9.7658
v  -10.3361 71.4243 9.7658
v  -13.3769 104.8105 12.8066
v  13.3769 104.8105 12.8066
v  13.3769 188.2936 12.8066
v  -13.3769 188.2936 12.8066
v  15.0144 0.5007 12.1612
v  15.0144 0.5007 -12.1612
v  15.0144 8.0417 -12.1612
v  15.0144 8.0417 12.1612
v  18.1460 8.0417 15.0450
v  18.1460 8.0417 -15.0450
v  14.7204 68.2795 -12.2048
v  14.7204 68.2795 12.2048
v  11.2308 68.2795 8.8711
v  11.2308 68.2795 -8.8711
v  11.2308 71.4243 -8.8711
v  11.2308 71.4243 8.8711
v  14.2716 104.8105 11.9119
v  14.2716 104.8105 -11.9119
v  14.2716 188.2936 -11.9119
v  14.2716 188.2936 11.9119
v  14.1197 0.5007 -13.0559
v  -14.1197 0.5007 -13.0559
v  -14.1197 8.0417 -13.0559
v  14.1197 8.0417 -13.0559
v  17.2513 8.0417 -15.9397
v  -17.2513 8.0417 -15.9397
v  -13.9946 68.2795 -12.9306
v  13.9946 68.2795 -12.9306
v  10.3361 68.2795 -9.7658
v  -10.3361 68.2795 -9.7658
v  -10.3361 71.4243 -9.7658
v  10.3361 71.4243 -9.7658
v  13.3769 104.8105 -12.8066
v  -13.3769 104.8105 -12.8066
v  -13.3769 188.2936 -12.8066
v  13.3769 188.2936 -12.8066
v  -15.0144 0.5007 -12.1612
v  -15.0144 0.5007 12.1612
v  -15.0144 8.0417 12.1612
v  -15.0144 8.0417 -12.1612
v  -18.1460 8.0417 -15.0450
v  -18.1460 8.0417 15.0450
v  -14.7204 68.2795 12.2048
v  -14.7204 68.2795 -12.2048
v  -11.2308 68.2795 -8.8711
v  -11.2308 68.2795 8.8711
v  -11.2308 71.4243 8.8711
v  -11.2308 71.4243 -8.8711
v  -14.2716 104.8105 -11.9119
v  -14.2716 104.8105 11.9119
v  -14.2716 188.2936 11.9119
v  -14.2716 188.2936 -11.9119
v  -11.1546 104.8105 10.5843
v  11.1546 104.8105 10.5843
v  12.0493 104.8105 9.6896
v  12.0493 104.8105 -9.6896
v  11.1546 104.8105 -10.5843
v  -11.1546 104.8105 -10.5843
v  -12.0493 104.8105 -9.6896
v  -12.0493 104.8105 9.6896
# 72 vertices

vn -0.3827 0.0000 0.9239
vn 0.3827 0.0000 0.9239
vn 0.2275 -0.8042 0.5491
vn -0.2275 -0.8042 0.5491
vn -0.3632 -0.4852 0.7954
vn 0.3632 -0.4852 0.7954
vn 0.2207 0.7602 0.6111
vn -0.2207 0.7602 0.6111
vn -0.2274 0.8042 0.5491
vn 0.2274 0.8042 0.5491
vn 0.3826 0.0000 0.9239
vn -0.3826 0.0000 0.9239
vn -0.2972 -0.6302 0.7173
vn 0.2971 -0.6303 0.7173
vn -0.3826 -0.0000 0.9239
vn 0.9239 0.0000 0.3827
vn 0.9239 0.0000 -0.3827
vn 0.5491 -0.8042 -0.2275
vn 0.5491 -0.8042 0.2275
vn 0.8024 -0.4789 0.3561
vn 0.8024 -0.4789 -0.3561
vn 0.5996 0.7678 -0.2256
vn 0.5996 0.7678 0.2256
vn 0.5491 0.8042 0.2274
vn 0.5491 0.8042 -0.2274
vn 0.9239 0.0000 -0.3826
vn 0.9239 0.0000 0.3826
vn 0.7173 -0.6303 0.2971
vn 0.7173 -0.6302 -0.2971
vn 0.9239 -0.0000 -0.3827
vn 0.3827 0.0000 -0.9239
vn -0.3827 0.0000 -0.9239
vn -0.2275 -0.8042 -0.5491
vn 0.2275 -0.8042 -0.5491
vn 0.3632 -0.4852 -0.7954
vn -0.3632 -0.4852 -0.7954
vn -0.2207 0.7602 -0.6111
vn 0.2207 0.7602 -0.6111
vn 0.2274 0.8042 -0.5491
vn -0.2274 0.8042 -0.5491
vn -0.3826 0.0000 -0.9239
vn 0.3826 0.0000 -0.9239
vn 0.2972 -0.6302 -0.7173
vn -0.2971 -0.6303 -0.7173
vn 0.3826 -0.0000 -0.9239
vn -0.9239 0.0000 -0.3827
vn -0.9239 0.0000 0.3827
vn -0.5491 -0.8042 0.2275
vn -0.5491 -0.8042 -0.2275
vn -0.8024 -0.4789 -0.3561
vn -0.8024 -0.4789 0.3561
vn -0.5996 0.7678 0.2256
vn -0.5996 0.7678 -0.2256
vn -0.5491 0.8042 -0.2274
vn -0.5491 0.8042 0.2274
vn -0.9239 0.0000 0.3826
vn -0.9239 0.0000 -0.3826
vn -0.7173 -0.6302 -0.2972
vn -0.7173 -0.6302 0.2971
vn -0.9239 -0.0000 0.3827
vn 0.0000 -1.0000 -0.0000
# 61 vertex normals

vt 0.0478 0.0215 0.0000
vt 0.3289 0.0200 0.0000
vt 0.3290 0.0329 0.0000
vt 0.0479 0.0344 0.0000
vt 0.0200 0.0601 0.0000
vt 0.3634 0.0583 0.0000
vt 0.3316 0.4224 0.0000
vt 0.0530 0.4239 0.0000
vt 0.0896 0.4552 0.0000
vt 0.2953 0.4541 0.0000
vt 0.2954 0.4595 0.0000
vt 0.0896 0.4606 0.0000
vt 0.7623 0.0410 0.0000
vt 0.9800 0.0408 0.0000
vt 0.9790 0.4050 0.0000
vt 0.7612 0.4051 0.0000
vt 0.0602 0.4879 0.0000
vt 0.2646 0.4878 0.0000
vt 0.2646 0.4988 0.0000
vt 0.0602 0.4988 0.0000
vt 0.0485 0.5419 0.0000
vt 0.3013 0.5417 0.0000
vt 0.2692 0.8737 0.0000
vt 0.0641 0.8737 0.0000
vt 0.0919 0.9026 0.0000
vt 0.2414 0.9028 0.0000
vt 0.2416 0.9074 0.0000
vt 0.0934 0.9067 0.0000
vt 0.9116 0.8048 0.0000
vt 0.9120 0.9620 0.0000
vt 0.6163 0.9613 0.0000
vt 0.6166 0.8036 0.0000
vt 0.4244 0.0246 0.0000
vt 0.6774 0.0250 0.0000
vt 0.6773 0.0367 0.0000
vt 0.4244 0.0363 0.0000
vt 0.3933 0.0856 0.0000
vt 0.7024 0.0861 0.0000
vt 0.6730 0.3994 0.0000
vt 0.4225 0.3984 0.0000
vt 0.4544 0.4271 0.0000
vt 0.6402 0.4276 0.0000
vt 0.6403 0.4325 0.0000
vt 0.4560 0.4316 0.0000
vt 0.9725 0.7460 0.0000
vt 0.7906 0.7477 0.0000
vt 0.7907 0.4429 0.0000
vt 0.9731 0.4420 0.0000
vt 0.5413 0.9643 0.0000
vt 0.3358 0.9576 0.0000
vt 0.3342 0.9464 0.0000
vt 0.5416 0.9532 0.0000
vt 0.5681 0.9002 0.0000
vt 0.3132 0.8911 0.0000
vt 0.3457 0.6319 0.0000
vt 0.5530 0.6389 0.0000
vt 0.5263 0.6083 0.0000
vt 0.3751 0.6031 0.0000
vt 0.3752 0.5985 0.0000
vt 0.5250 0.6040 0.0000
vt 0.7561 0.7351 0.0000
vt 0.6146 0.7360 0.0000
vt 0.6150 0.4697 0.0000
vt 0.7570 0.4695 0.0000
vt 0.7792 0.0273 0.0000
vt 0.9608 0.0271 0.0000
vt 0.9263 0.8184 0.0000
vt 0.9267 0.9471 0.0000
vt 0.9568 0.7614 0.0000
vt 0.8042 0.7628 0.0000
vt 0.7440 0.7485 0.0000
vt 0.6281 0.7492 0.0000
vt 0.0496 0.4879 0.0000
vt 0.0496 0.4988 0.0000
vt 0.3238 0.9512 0.0000
vt 0.3266 0.9609 0.0000
vt 0.0383 0.5454 0.0000
vt 0.0569 0.8780 0.0000
vt 0.3371 0.6297 0.0000
vt 0.3044 0.8923 0.0000
vt 0.0836 0.9097 0.0000
vt 0.0860 0.9131 0.0000
vt 0.3645 0.5981 0.0000
vt 0.3643 0.6027 0.0000
vt 0.9140 0.7977 0.0000
vt 0.6170 0.7952 0.0000
vt 0.4131 0.0246 0.0000
vt 0.4131 0.0362 0.0000
vt 0.3824 0.0891 0.0000
vt 0.4149 0.4026 0.0000
vt 0.4452 0.4345 0.0000
vt 0.4478 0.4382 0.0000
vt 0.9780 0.7485 0.0000
vt 0.9800 0.4424 0.0000
vt 0.5521 0.9646 0.0000
vt 0.5524 0.9535 0.0000
vt 0.5785 0.8971 0.0000
vt 0.5603 0.6351 0.0000
vt 0.5353 0.6015 0.0000
vt 0.5329 0.5979 0.0000
vt 0.7626 0.7373 0.0000
vt 0.7646 0.4699 0.0000
vt 0.3723 0.0494 0.0000
vt 0.3378 0.0240 0.0000
vt 0.7104 0.0781 0.0000
vt 0.6854 0.0287 0.0000
vt 0.3088 0.5342 0.0000
vt 0.2721 0.4912 0.0000
vt 0.0458 0.4311 0.0000
vt 0.0807 0.4641 0.0000
vt 0.6075 0.4697 0.0000
vt 0.6071 0.7360 0.0000
vt 0.7719 0.0200 0.0000
vt 0.7539 0.0381 0.0000
vt 0.9316 0.8113 0.0000
vt 0.9642 0.7667 0.0000
vt 0.7504 0.7532 0.0000
# 117 texture coords

o stone
g stone
usemtl Material__3
s 1
f 105/188/85 106/189/86 107/190/87 108/191/88 
f 109/192/89 110/193/90 111/194/91 112/195/92 
f 113/196/93 114/197/94 115/198/95 116/199/96 
f 117/200/97 118/201/98 119/202/95 120/203/99 
f 121/204/100 122/205/101 123/206/102 124/207/103 
f 125/208/104 126/209/105 127/210/106 128/211/107 
f 129/212/108 130/213/109 131/214/110 132/215/111 
f 133/216/112 134/217/113 135/218/114 136/219/111 
f 137/220/115 138/221/116 139/222/117 140/223/118 
f 141/224/119 142/225/120 143/226/121 144/227/122 
f 145/228/123 146/229/124 147/230/125 148/231/126 
f 149/232/127 150/233/128 151/234/116 152/235/129 
f 153/236/130 154/237/131 155/238/132 156/239/133 
f 157/240/134 158/241/135 159/242/136 160/243/137 
f 161/244/138 162/245/139 163/246/140 164/247/141 
f 165/248/142 166/249/143 167/250/144 168/251/141 
s 2
f 110/193/90 109/192/89 108/191/88 107/190/87 
f 158/241/135 157/240/134 156/239/133 155/238/132 
f 142/225/120 141/224/119 140/223/118 139/222/117 
f 126/209/105 125/208/104 124/207/103 123/206/102 
f 112/195/92 111/194/91 114/197/94 113/196/93 
f 128/211/107 127/210/106 130/213/109 129/212/108 
f 144/227/122 143/226/121 146/229/124 145/228/123 
f 160/243/137 159/242/136 162/245/139 161/244/138 
s 4
f 169/252/145 170/253/145 118/201/98 117/200/97 
f 171/254/145 172/255/145 134/217/113 133/216/112 
f 173/256/145 174/257/145 150/233/128 149/232/127 
f 175/258/145 176/259/145 166/249/143 165/248/142 
f 106/260/86 121/204/100 124/207/103 107/261/87 
f 108/262/88 155/238/132 154/237/131 105/263/85 
f 110/264/90 125/208/104 128/211/107 111/265/91 
f 112/266/92 159/242/136 158/241/135 109/267/89 
f 114/268/94 129/212/108 132/215/111 115/269/95 
f 116/270/96 163/246/140 162/245/139 113/271/93 
s 8
f 118/272/98 133/216/112 136/219/111 119/273/95 
s 4
f 122/274/101 137/220/115 140/223/118 123/275/102 
f 126/276/105 141/224/119 144/227/122 127/277/106 
f 130/278/109 145/228/123 148/231/126 131/279/110 
s 8
f 134/280/113 149/232/127 152/235/129 135/281/114 
s 4
f 138/282/116 153/236/130 156/239/133 139/283/117 
f 142/284/120 157/240/134 160/243/137 143/285/121 
f 146/286/124 161/244/138 164/247/141 147/287/125 
s 8
f 150/288/128 165/248/142 168/251/141 151/289/116 
s 2
f 125/290/104 110/193/90 107/190/87 124/291/103 
f 109/267/89 158/241/135 155/238/132 108/262/88 
f 157/292/134 142/225/120 139/222/117 156/293/133 
f 141/294/119 126/209/105 123/206/102 140/295/118 
f 159/296/136 112/195/92 113/196/93 162/297/139 
f 111/265/91 128/211/107 129/212/108 114/268/94 
f 127/277/106 144/227/122 145/228/123 130/278/109 
f 143/285/121 160/243/137 161/244/138 146/286/124 
s 8
f 120/298/99 167/250/144 166/249/143 117/299/97 
s 4
f 176/300/145 169/252/145 117/200/97 166/301/143 
f 170/302/145 171/254/145 133/216/112 118/272/98 
f 172/303/145 173/256/145 149/232/127 134/280/113 
f 174/304/145 175/258/145 165/248/142 150/288/128 
# 56 polygons

